<svg width="179" height="132" viewBox="0 0 179 132" fill="none" xmlns="http://www.w3.org/2000/svg">
<path fill-rule="evenodd" clip-rule="evenodd" d="M16.6149 118.464L16.3793 118.477C16.0347 117.932 15.7509 117.414 15.8624 117.056C16.6803 114.437 16.1303 113.66 14.9766 113.453C4.7296 109.945 9.16443 105.076 6.8686 101.51C3.30055 96.8047 -1.30869 96.9021 4.36285 85.1456C5.68852 81.8282 3.51259 79.2424 5.09952 76.1519C5.1811 75.7798 4.78797 73.4601 4.65786 73.1443C10.1219 73.5164 14.0286 72.1638 15.1757 70.2497C18.4905 60.4488 27.6338 58.6367 33.2564 60.3029C37.2355 61.4817 40.8408 63.6533 45.5739 62.9043C58.3938 57.2314 55.6704 68.8507 66.6467 59.9347C68.5617 56.8378 74.5448 54.3093 78.5137 56.2484C83.7647 58.8142 89.5829 61.5626 96.8125 58.4696C103.459 54.6898 95.8321 51.2219 98.3411 48.2133C100.919 43.8392 104.719 38.0489 99.6101 35.9588C93.6337 34.9376 88.8005 29.6607 88.2428 27.6463C86.1752 20.1788 89.6704 12.1877 97.0882 14.5249C103.604 15.4439 103.722 13.3454 103.722 6.56337C103.722 4.68754 100.375 0.56308 100.768 1.04734C110.951 0.636229 115.524 4.07562 123.555 5.07262C126.942 5.23615 133.255 4.72338 136.052 6.46664C139.763 8.45185 142.028 10.4381 150.868 15.4604C155.178 22.259 147.753 24.4559 155.069 30.3507C156.863 31.7964 159.583 39.3638 163.097 39.4137C168.859 39.6697 170.021 39.2642 173.865 42.7701C183.962 47.1193 169.692 47.4495 169.663 58.2896C169.158 64.0539 166.515 68.7695 166.089 75.4654C165.705 92.101 162.861 79.3496 154.848 92.0515C152.033 96.3946 151.032 101.79 145.321 102.654C136.618 104.13 143.337 110.103 151.034 108.63C156.487 106.641 156.543 124.192 152.636 124.487C149.958 123.877 145.701 124.53 146.409 126.866L146.165 127.19C135.078 129.036 132.746 120.769 119.036 117.918C112.68 116.204 106.54 130.42 104.417 118.057C104.417 115.697 96.4707 116.44 100.32 124.865C102.509 131.516 95.6124 130.73 91.5914 129.576C88.1665 129.653 84.6364 126.757 73.1084 127.758C65.5394 127.831 64.3667 123.561 57.5214 120.23C50.3122 113.934 44.9747 121.777 41.6514 114.137C38.6804 108.964 33.9192 110.194 30.6677 113.446C26.0377 118.288 24.3048 118.896 16.6149 118.464Z" fill="#781214" stroke="white" stroke-width="2" stroke-linejoin="round"/>
</svg>
