<svg width="156" height="124" viewBox="0 0 156 124" fill="none" xmlns="http://www.w3.org/2000/svg">
<path fill-rule="evenodd" clip-rule="evenodd" d="M31.2422 1.19139C31.4489 3.39956 28.7188 4.59805 23.4847 11.531C19.0348 17.4244 10.7094 14.2424 7.76098 14.2171C-2.56164 14.1295 2.26738 21.0332 7.86999 25.4549C12.634 29.2153 13.1027 36.6596 11.4922 40.0751C13.5063 42.8104 13.73 48.2034 21.1407 48.7252C25.2232 50.3088 23.4583 54.4477 28.0581 54.2191C30.9802 54.0735 29.3774 56.8043 36.8807 58.1114L41.9762 64.7444C42.4738 65.9862 43.3669 67.8356 46.1023 68.7229C49.7794 69.9161 48.6875 74.0856 51.6736 76.176C53.8415 78.1429 52.8108 82.7583 53.6533 84.7495C55.4031 86.5648 56.1302 94.1089 59.3751 94.3699C63.3648 94.1128 59.7932 98.187 65.6916 97.203C68.8025 96.6836 68.6408 99.4192 70.4316 98.9005C72.1814 98.3931 72.6009 100.893 74.1674 102.299C80.3731 101.501 76.9696 102.589 78.4957 107.116C78.8484 108.162 81.0669 109.668 81.5525 111.002C82.1907 112.754 84.0101 114.192 84.1884 115.734C84.3315 116.972 82.8282 118.402 83.2424 119.172C83.8103 120.228 84.3779 121.283 84.9454 122.338C97.9767 119.055 108.056 112.435 111.199 116.052C115.469 120.966 118.473 118.562 121.233 116.431C126.872 112.077 128.344 118.43 137.835 105.328C138.749 104.067 140.219 103.077 142.357 102.876C145.787 89.2628 150.39 88.3214 154.181 85.3396C153.08 84.069 153.31 82.7832 152.849 81.5351C151.041 76.6395 152.452 71.8229 153.122 65.9925C154.028 58.1118 154.577 49.8432 151.246 46.5881C146.943 40.7039 131.125 22.1337 136.077 13.7176C138.494 9.60934 139.999 7.25133 138.671 4.97212C119.834 11.1103 127.418 15.4359 115.369 18.6576C111.769 19.6201 108.384 20.3769 105.867 20.5756C101.672 20.9069 99.3583 20.5246 99.3523 24.5207C99.3449 29.3914 86.3305 25.5845 79.8776 27.4178C68.9717 30.5168 74.9853 22.6196 65.693 17.9768C65.1722 18.4508 62.1024 18.1311 61.147 18.6512C55.3767 21.7938 55.5894 27.7076 48.3661 22.1395C43.5572 18.4325 36.6285 17.618 34.1287 14.658C31.297 11.304 31.9201 5.91017 31.2422 1.19139Z" fill="#781214" stroke="white" stroke-width="2" stroke-linejoin="round"/>
</svg>
