<svg width="288" height="374" viewBox="0 0 288 374" fill="none" xmlns="http://www.w3.org/2000/svg">
<path class="svgclass" fill-rule="evenodd" clip-rule="evenodd" d="M108.954 27.7636V26.1523C108.954 20.9162 116.201 19.6818 122.473 18.6135C125.088 18.168 127.534 17.7515 129.214 17.0857C133.994 15.1915 136.409 10.8435 138.378 7.29645C140.006 4.36498 141.331 1.98059 143.435 1.98059H144.08C147.037 1.98059 147.305 4.03733 147.611 6.38207C147.698 7.05372 147.789 7.74903 147.947 8.42644L152.821 9.00669L152.781 9.3932C152.471 9.81517 152.093 10.0025 151.734 10.1797C151.097 10.495 150.525 10.7781 150.525 12.2938V13.583C150.525 15.7713 151.595 16.0045 152.761 16.2585C154.159 16.5631 155.694 16.8976 155.689 20.6655C155.684 23.7162 156.005 29.6975 158.581 29.6975C159.962 29.6975 160.742 28.9348 161.455 28.239C162.052 27.6555 162.601 27.119 163.415 27.119C163.972 27.119 164.759 27.6467 165.511 28.1508C166.198 28.6117 166.856 29.0529 167.282 29.0529C168.382 29.0529 168.926 27.9446 169.523 26.7249C170.255 25.2327 171.068 23.5738 173.083 23.5738H173.405C174.747 23.5738 175.632 23.8556 176.557 24.1501C176.985 24.2864 177.422 24.4254 177.916 24.5406C177.745 25.275 177.41 25.7828 177.09 26.2685C176.686 26.8805 176.305 27.4573 176.305 28.4083V29.6975C176.305 30.7839 178.582 31.4109 179.527 31.631V32.2756C176.498 32.9815 169.215 34.825 169.215 38.0769C169.215 38.4638 169.253 38.5483 169.323 38.7072C169.376 38.8283 169.448 38.9924 169.538 39.3661C169.78 39.4226 169.944 39.4775 170.086 39.5254C170.369 39.6203 170.571 39.6883 171.149 39.6883H172.438C174.443 39.6883 176.599 39.1797 178.701 38.6841C180.697 38.2134 182.643 37.7544 184.361 37.7544H185.65L185.955 38.7282L187.584 40.9775L187.581 40.9787L187.583 40.9785L187.583 40.9784C190.772 40.9784 193.706 43.803 193.706 47.1018V50.647C193.706 50.7271 193.68 50.8183 193.632 50.9204C193.95 50.9952 194.354 51.3017 194.788 51.6312C195.385 52.0835 196.038 52.5793 196.606 52.5793H196.928C197.744 52.5793 201.117 51.4011 201.117 50.6457C201.117 49.4486 200.182 48.6563 198.926 48.0557L203.626 44.4316L205.973 48.3746C205.295 48.829 204.34 49.5784 204.34 50.6457C204.34 50.7414 205.649 54.7396 206.26 56.6072L206.266 56.6262C206.398 57.0288 206.497 57.3299 206.541 57.4676C207.09 59.1574 208.093 59.6587 209 60.1121C209.787 60.5051 210.501 60.8621 210.785 61.9257H209.496C208.744 61.9257 207.885 62.7856 207.885 63.5371C207.885 65.9609 210.249 66.4734 212.335 66.9257C212.575 66.9778 212.812 67.0291 213.041 67.0824L215.005 74.899L220.13 74.8175L224.084 80.8846C223.524 80.9227 222.945 81.027 222.363 81.1496C222.469 81.3037 222.513 81.5571 222.482 81.9482C222.292 84.3393 222.263 85.0764 223.028 86.7468C223.776 88.3819 226.36 90.6277 227.696 91.7884C228.187 92.2152 228.51 92.4952 228.51 92.5442C228.51 92.5563 228.509 92.5686 228.509 92.5809C228.499 96.3082 226.897 99.8004 225.41 102.338C224.082 104.601 223.675 109.602 223.675 113.172V115.751C223.675 119.754 223.725 123.47 223.986 127.365C224.104 129.131 225.752 130.358 227.269 131.488C228.064 132.08 228.823 132.645 229.307 133.247L229.308 133.246L234.316 133.536C235.011 136.491 235.932 137.522 237.369 139.13C237.691 139.49 238.039 139.88 238.416 140.326C239.986 142.185 240.591 143.513 241.384 145.251L241.384 145.252L241.386 145.256C241.671 145.881 241.98 146.559 242.366 147.334C244.994 152.596 247.418 155.947 250.641 160.404L250.641 160.404L250.642 160.405L250.745 160.548C251.271 161.275 252.518 162.13 253.844 162.974L253.832 162.966C253.9 162.838 254.071 162.604 254.282 162.317C254.836 161.563 255.661 160.439 255.578 159.902L254.933 154.423C254.862 153.967 255.848 153.48 256.353 153.23C256.43 153.192 256.495 153.16 256.545 153.134L260.712 153.906L262.023 153.778C265.389 153.778 266.89 153.403 267.549 153.239C267.827 153.169 267.955 153.137 268.01 153.187C268.057 153.229 268.051 153.331 268.039 153.519C268.007 154.038 267.935 155.213 268.819 157.616C269.629 159.816 271.18 161.172 272.756 162.55C273.295 163.021 273.838 163.495 274.354 164.006C277.254 166.877 277.417 166.959 280.814 168.654L281.07 168.782C281.164 168.829 281.26 168.877 281.358 168.926C281.494 168.994 281.631 169.062 281.769 169.13L281.785 169.138L281.786 169.139C284.253 170.36 286.836 171.638 286.836 175.371V177.95C286.836 178.737 286.315 179.703 285.741 180.768C285.216 181.742 284.646 182.799 284.387 183.88C283.761 186.491 283.092 187.941 280.069 187.941C279.365 187.941 279.072 187.78 278.78 187.619C278.487 187.458 278.195 187.296 277.491 187.296H275.235C273.947 187.296 271.953 188.872 270.32 190.162C269.299 190.969 268.419 191.664 267.941 191.793L267.941 191.794C267.849 191.913 267.771 191.966 267.709 192.008C267.569 192.104 267.502 192.149 267.502 192.776C267.502 192.973 267.707 193.702 267.984 194.687C268.509 196.552 269.293 199.334 269.43 201.161C269.691 204.61 270.528 207.639 272.014 209.857L272.012 209.86L272.014 209.858C272.224 209.999 272.571 210.216 273 210.485C275.078 211.787 279.104 214.309 279.104 215.337V217.271C279.104 217.975 278.942 218.267 278.781 218.56C278.62 218.853 278.459 219.145 278.459 219.849V220.171L279.164 226.932L277.886 228.3C273.377 228.229 270.403 230.42 270.403 234.675V235.963L271.877 247.863C271.858 248.33 271.578 248.677 271.266 249.062C270.861 249.564 270.403 250.13 270.403 251.111V252.723C270.403 258.354 272.473 259.463 274.376 260.481C275.995 261.348 277.492 262.149 277.492 265.614V266.903C277.492 269.41 267.154 276.368 264.924 277.861C260.57 277.861 256.248 281.317 253.043 283.88C252.431 284.369 251.859 284.826 251.336 285.22C250.838 285.596 250.298 285.987 249.735 286.396L249.728 286.401L249.727 286.402C246.389 288.824 242.245 291.832 241.027 295.535C240.28 297.805 239.893 299.525 239.564 300.989C238.827 304.266 238.378 306.263 234.824 310.281C233.507 311.77 224.156 317.997 222.387 318.469C221.811 316.31 219.036 313.203 216.484 312.991C210.377 313.051 204.101 318.545 200.874 321.772C199.181 323.466 190.16 333.299 190.16 335.228V337.806C190.16 338.569 190.353 338.886 190.528 339.173C190.672 339.411 190.805 339.629 190.805 340.063C190.805 342.059 188.592 345.219 186.938 345.219H185.971L179.859 344.494C179.222 344.471 178.576 347.064 178.205 348.555C178.102 348.967 178.02 349.296 177.966 349.46C177.482 350.918 176.634 352.506 175.853 353.792C174.537 355.958 173.114 357.427 171.594 358.997C171.002 359.609 170.394 360.236 169.773 360.926C168.955 361.833 168.258 362.813 167.569 363.782C166.439 365.372 165.328 366.934 163.736 368.102C163.563 368.228 163.35 368.388 163.105 368.57C161.221 369.979 157.467 372.787 155.679 372.936L156.449 365.858C156.501 364.433 154.126 361.711 152.311 359.632C151.534 358.741 150.859 357.968 150.523 357.466C150.913 356.933 151.44 356.652 151.955 356.379C152.87 355.892 153.745 355.426 153.745 353.599C153.745 352.629 153.504 351.986 153.262 351.343C153.02 350.699 152.779 350.056 152.779 349.087C152.779 348.775 153.141 348.529 153.609 348.211C154.466 347.63 155.679 346.808 155.679 344.897C155.679 344.389 155.592 343.929 155.51 343.496C155.339 342.587 155.19 341.8 155.92 340.948C156.186 340.637 156.487 340.453 156.774 340.277C157.387 339.902 157.935 339.567 157.935 338.129V337.162C157.692 337.105 157.529 337.051 157.387 337.003C157.104 336.907 156.902 336.839 156.324 336.839H152.134C152.175 335.031 153.152 334.793 154.02 334.582C154.725 334.41 155.357 334.256 155.357 333.294V332.972C155.357 331.281 151.88 330.098 150.202 329.748C149.383 329.578 149.299 328.996 149.186 328.208C149.041 327.196 148.846 325.844 146.978 324.593C146.839 324.593 146.686 324.598 146.529 324.603C145.697 324.632 144.722 324.666 144.722 323.948C144.722 323.335 144.787 322.975 144.847 322.645C144.898 322.365 144.945 322.106 144.945 321.732C144.945 321.206 144.797 320.891 144.652 320.581C144.476 320.207 144.304 319.839 144.4 319.114C143.713 319.114 142.598 319.874 142.003 320.28C141.936 320.326 141.875 320.368 141.822 320.403C141.796 319.25 141.681 318.147 140.533 318.147H138.278L137.525 312.365L146.179 312.035L149.217 314.065C149.166 313.302 149.023 312.88 148.887 312.477C148.735 312.024 148.59 311.595 148.59 310.734V308.478C151.705 309.31 152.035 312.129 152.32 314.562C152.565 316.659 152.777 318.469 154.712 318.469C155.114 318.469 156.001 317.979 156.001 317.18V316.535C156.001 315.907 155.925 315.591 155.844 315.252C155.781 314.991 155.716 314.718 155.679 314.279C157.5 313.855 157.656 313.417 157.921 312.669C158.047 312.314 158.197 311.889 158.563 311.363C158.888 310.896 159.497 310.662 160.101 310.43C160.957 310.102 161.802 309.778 161.802 308.8C161.802 308.073 160.081 307.853 159.224 307.834L159.531 305.897L160.835 305.9C163.942 305.9 169.536 304.91 169.536 302.354V302.032C169.536 301.29 169.312 301.066 168.569 301.066H166.636C165.606 301.066 164.993 301.227 164.38 301.388C163.767 301.549 163.154 301.71 162.124 301.71H161.48C160.5 301.71 160.509 301.258 160.523 300.636C160.538 299.927 160.558 298.997 159.129 298.26C157.58 297.461 157.209 297.376 155.97 297.092C155.645 297.018 155.259 296.929 154.777 296.811C152.649 296.287 150.201 292.402 150.201 290.108V288.819H151.49C152.244 288.819 152.779 288.284 152.779 287.529C152.779 285.182 147.077 278.828 144.722 278.828C142.915 278.828 141.553 281.29 141.178 282.695H138.278C137.993 282.695 133.027 277.578 132.839 277.176C131.844 275.055 131.06 274.045 130.16 272.885C129.69 272.281 129.189 271.635 128.61 270.771V265.936L127.33 265.274C127.325 263.414 126.746 262.462 126.222 261.601C125.786 260.884 125.387 260.23 125.387 259.168C125.387 258.871 126.929 257.234 127.643 257.234H129.254C130.868 257.234 132.165 257.569 133.437 257.897C134.663 258.213 135.867 258.523 137.311 258.523C139.222 258.523 139.887 255.972 140.532 253.499C141.016 251.644 141.488 249.832 142.467 249.177C143.309 249.623 144.109 250.444 144.929 251.284C146.234 252.623 147.587 254.011 149.234 254.011C150.601 254.011 151.812 252.811 151.812 251.755C151.812 250.588 150.609 249.677 149.243 248.642C147.446 247.281 145.367 245.706 145.367 243.054V242.731C145.367 242.225 145.492 242.081 145.701 241.84C145.79 241.737 145.895 241.617 146.011 241.442C148.823 241.442 149.724 239.897 150.472 238.615C151.002 237.707 151.455 236.93 152.457 236.93C153.512 236.93 154.482 237.452 155.319 237.902C155.953 238.242 156.51 238.542 156.968 238.542C157.613 238.542 158.257 237.202 158.257 236.286C158.257 234.296 154.547 229.763 153.108 228.867C151.994 228.174 151.047 228.201 150.08 228.229C149.301 228.251 148.509 228.274 147.607 227.922C147.199 227.762 146.853 227.604 146.53 227.456C145.501 226.986 144.694 226.617 142.789 226.617C141.164 226.617 139.611 227.421 138.239 228.131C137.154 228.692 136.182 229.195 135.377 229.195C135.191 229.195 135.039 229.035 134.841 228.829C134.478 228.448 133.962 227.906 132.799 227.906C132.412 227.906 132.328 227.943 132.169 228.013C132.048 228.067 131.884 228.139 131.51 228.228L130.843 230.801L130.221 230.807C130.077 230.188 129.815 229.695 129.565 229.224C129.239 228.61 128.932 228.032 128.932 227.262C128.932 227.222 129.031 227.075 129.18 226.853C129.631 226.179 130.543 224.816 130.543 223.716C130.543 222.541 129.198 217.271 127.643 217.271C126.148 217.271 125.66 218.378 125.185 219.455C124.894 220.116 124.608 220.764 124.098 221.138C123.311 220.561 123.083 219.656 122.864 218.784C122.543 217.508 122.241 216.304 120.231 216.304H117.009C112.488 216.304 105.726 220.606 103.804 223.401C102.041 225.964 99.3308 226.13 96.5675 226.299C93.9323 226.46 91.2492 226.625 89.2951 228.873C89.2951 228.501 89.3116 228.098 89.3287 227.682C89.3782 226.475 89.4319 225.168 89.0947 224.239C88.9002 223.704 88.6366 223.354 88.3899 223.027C88.0177 222.534 87.6839 222.091 87.6839 221.138C87.6839 220.434 87.845 220.141 88.0062 219.849C88.1673 219.556 88.3284 219.264 88.3284 218.56C88.3284 218.531 85.8209 215.23 85.5196 214.923C84.1548 213.536 83.6465 213.633 82.5859 213.836C82.0905 213.93 81.4746 214.048 80.5946 214.048C79.8515 213.55 79.1862 212.425 78.4925 211.251C77.446 209.481 76.3348 207.602 74.794 207.602H73.5049C73.0211 207.602 72.6186 207.924 72.216 208.246C71.8134 208.569 71.4108 208.891 70.9267 208.891H70.6046C69.7016 208.891 68.7444 207.548 68.3488 206.957C68.3488 202.979 68.0686 201.729 66.0189 199.619C65.2718 198.849 64.6033 198.117 63.9365 197.386L63.9361 197.385L63.9358 197.385C63.1158 196.486 62.2981 195.589 61.3393 194.63C60.9926 194.284 60.4607 193.692 59.8142 192.974L59.8138 192.974L59.8135 192.973C57.3207 190.203 53.1248 185.54 51.2695 185.687L44.8247 185.687V185.685C42.2783 185.473 40.4308 184.23 38.4407 182.892C35.8465 181.147 33.0102 179.239 28.0681 179.239H27.1015C27.138 178.801 27.2038 178.527 27.2664 178.266C27.3478 177.928 27.4239 177.611 27.4239 176.983V176.339C27.4239 172.052 25.2946 168.494 23.4169 165.357L23.4166 165.356C22.8886 164.474 22.3806 163.625 21.9454 162.803C23.7324 162.803 25.1678 162.196 25.1678 160.547C25.1678 159.268 22.3424 155.458 21.5438 154.502C20.2633 152.97 17.7975 152.5 15.5764 152.077L15.5726 152.076L15.5674 152.075C15.3001 152.024 15.0364 151.974 14.7787 151.922C14.1597 151.799 13.4409 151.678 12.6658 151.548C8.23555 150.807 1.96582 149.757 1.96582 146.043V144.754C1.96582 141.688 6.74385 136.052 10.3443 136.052H10.6667C11.3705 136.052 11.663 136.214 11.9556 136.375C12.2482 136.536 12.5407 136.697 13.2445 136.697H13.8891C14.5931 136.697 14.8857 136.536 15.1784 136.375C15.471 136.214 15.7635 136.052 16.4673 136.052H18.723C19.7715 136.052 19.7418 136.801 19.7044 137.743C19.6972 137.925 19.6897 138.115 19.6897 138.308C19.8061 138.37 19.9118 138.431 20.013 138.489C20.4621 138.747 20.8209 138.953 21.6233 138.953H22.59V139.92C22.59 140.648 25.3331 143.787 26.7794 143.787H27.1015C27.7703 143.787 28.7127 142.845 28.7127 142.498C28.7127 141.895 28.5345 141.378 28.3509 140.846C28.2483 140.548 28.1439 140.245 28.0681 139.92L28.7773 139.34L30.3242 139.275L32.1833 137.267C35.6635 137.328 35.7762 135.408 35.942 132.586C35.9794 131.95 36.0195 131.267 36.1016 130.551C36.2107 129.599 36.1668 129.042 36.1337 128.621C36.0751 127.878 36.0501 127.56 36.9592 126.252C36.9926 126.204 37.0257 126.156 37.0584 126.11C37.7994 125.047 38.3802 124.214 38.3802 122.516V121.55C38.3802 120.811 38.1624 120.393 37.9194 119.926C37.7381 119.579 37.5429 119.204 37.4135 118.649C37.8912 118.476 38.1585 118.042 38.4827 117.515C39.2597 116.252 40.3633 114.459 45.4699 114.459H47.7256C47.5309 113.73 47.0923 113.265 46.6532 112.799C46.062 112.173 45.4699 111.545 45.4699 110.269V109.303C45.4699 107.77 45.9247 106.44 46.4259 104.975C47.0409 103.177 47.7256 101.175 47.7256 98.3447V96.7333C47.7256 93.8626 47.1883 90.5491 45.9945 88.796C45.416 88.0616 44.9478 87.5153 44.578 87.0838C43.9167 86.3122 43.5696 85.907 43.4661 85.4471C43.3518 84.9387 43.5353 84.3632 43.9218 83.1517C44.1273 82.5076 44.3901 81.6837 44.6959 80.5946C48.3943 77.6405 51.6063 76.6477 55.1443 75.5542C57.9567 74.6849 60.9751 73.752 64.6077 71.7197C65.3779 71.2888 65.9306 70.5979 66.48 69.9111C67.3576 68.8141 68.2269 67.7275 69.961 67.7275H70.283C73.3087 67.7275 76.1049 68.8005 78.8671 69.8605C81.5631 70.8951 84.2269 71.9173 87.0403 71.9173H90.5851C92.2992 71.9173 94.2737 71.649 96.1482 71.3942C98.0684 71.1332 99.8839 70.8864 101.208 70.9569C102.05 71.0018 103.303 71.741 104.644 72.5322C106.246 73.4768 107.973 74.4955 109.276 74.4955H109.92C110.498 74.4955 110.7 74.4275 110.983 74.3326C111.125 74.2846 111.289 74.2298 111.531 74.1733L111.536 74.1871L111.533 74.1732C111.658 73.9867 111.835 73.7952 112.018 73.5974C112.406 73.1782 112.821 72.7303 112.821 72.2393V71.5947C112.821 70.0528 112.177 68.8901 111.532 67.7273C110.888 66.5646 110.243 65.4019 110.243 63.86V63.5375C110.243 62.7604 110.763 62.4282 111.335 62.062C112.038 61.6121 112.821 61.1107 112.821 59.6701V59.3476C112.821 57.9134 112.464 56.9006 112.125 55.9421C111.821 55.0811 111.532 54.2639 111.532 53.2243V52.5797C111.532 51.2108 112.266 50.8512 112.951 50.5159C113.55 50.2228 114.11 49.9482 114.11 49.0347V47.423C114.11 46.2518 113.568 45.7099 112.98 45.1234C112.705 44.8486 112.42 44.564 112.177 44.2003C112.238 44.0837 112.299 43.9778 112.357 43.8766C112.615 43.4277 112.821 43.069 112.821 42.2668V41.6221C112.821 41.3499 112.28 39.8908 111.712 38.3615C111.212 37.0125 110.691 35.6087 110.503 34.916C110.284 34.1054 108.954 28.4955 108.954 27.7636ZM217.355 81.3856L217.351 81.3846H217.353L217.355 81.3856Z" fill="#781214" stroke="white" stroke-width="2" stroke-linejoin="round"/>
</svg>
