<svg width="142" height="64" viewBox="0 0 142 64" fill="none" xmlns="http://www.w3.org/2000/svg">
<path fill-rule="evenodd" clip-rule="evenodd" d="M7.97087 10.1735C16.8926 11.7251 22.5617 1.91789 28.2371 1.22791C35.6981 2.87375 31.1395 10.2203 42.0564 8.08558C49.5887 8.49599 56.0687 19.52 65.0347 18.4048C75.7389 17.2882 86.6898 22.7212 89.754 21.2312C94.7645 16.977 86.6381 13.8858 91.0139 9.67518C94.6888 5.9133 95.5514 9.15716 96.3785 11.7237C99.8678 20.5075 103.174 5.6506 113.532 10.4942C120.422 12.0574 123.874 17.463 130.247 18.3784C138.529 18.5331 136.759 18.766 139.613 23.1897C142.833 28.9572 136.513 31.8553 132.017 36.1401C127.397 40.542 120.899 36.2383 116.136 37.3499C106.14 42.3553 127.97 46.6851 123.211 62.0607C120.26 60.8995 119.416 57.9605 114.968 58.7845C112.508 58.7789 111.917 56.4297 108.481 56.2162C106.308 56.0808 101.918 55.7281 100.389 57.2706C99.6304 58.5995 98.6138 59.1795 96.0859 58.347C93.232 58.4976 93.5752 61.8997 92.3867 62.0421C89.665 62.3688 89.1984 59.4337 86.8305 60.5619C83.9819 61.3025 83.2041 58.6365 79.7215 59.9693C69.8219 58.8334 72.7309 62.5752 66.245 60.9565C63.5845 59.9317 61.9364 61.1073 59.6399 61.9739C58.1514 62.5358 57.2987 63.2986 56.1024 62.0755L54.9048 60.8506C52.4834 59.3764 48.9983 61.5093 47.8049 60.6252C47.0858 60.0924 45.905 58.4831 43.1334 58.5805C41.2933 58.6456 40.198 56.736 40.18 56.7107C38.0519 53.7021 34.4909 56.5517 34.0542 53.6247C33.9522 52.9386 33.9951 52.914 33.4223 52.4512C31.8213 51.1588 30.1686 50.5486 28.4807 50.3802C26.3804 50.1312 24.508 49.5857 23.2143 48.287C22.55 47.6195 22.4224 47.5921 21.4093 47.5675C17.8698 47.4806 13.9736 48.9605 10.3142 45.2566C8.16814 43.7237 6.73874 42.5677 5.73131 41.5113C3.60637 39.2845 2.40659 35.5669 2.0532 32.5383C1.81725 30.5147 2.01206 28.3396 3.37922 26.9199C4.08636 26.1863 5.31215 25.6173 6.28513 25.3479C7.10514 25.1211 8.24375 25.0887 9.81486 25.867C14.3309 27.5121 9.4794 24.7234 9.34894 21.1785C9.33277 20.7329 9.28916 20.3904 9.0293 20.0172L8.26484 18.9179C7.86433 18.3531 7.35903 18.4421 7.0429 17.9993C6.68424 17.4975 6.64626 16.4558 6.44337 15.5598L5.74256 12.586C5.6434 11.6161 7.84288 10.2997 7.97087 10.1735Z" fill="#781214" stroke="white" stroke-width="2" stroke-linejoin="round"/>
</svg>
