<svg width="209" height="203" viewBox="0 0 209 203" fill="none" xmlns="http://www.w3.org/2000/svg" filter="drop-shadow(3px 5px 2px rgb(0 0 0 / 0.4))">
<path d="M4.70033 25.6894C4.71896 26.1363 9.29622 21.4194 10.1208 20.7375C11.3723 19.7018 14.082 17.4848 16.0427 14.6148C18.0323 11.7015 20.7219 9.02525 22.574 9.92378C27.6541 11.654 29.6152 13.5196 33.9164 18.1259C38.6205 22.889 44.9159 18.5556 45.3695 11.4799C45.6016 7.85345 44.9219 5.82113 46.7588 4.70843C59.4402 -3.25104 60.4934 7.57702 63.5758 7.75321C67.333 7.96809 73.371 9.07797 77.7633 12.823C79.9262 14.6672 82.7575 13.239 85.2661 16.6295C87.9195 17.2158 89.248 16.8233 91.5927 16.7445C94.4744 16.6478 97.0058 15.7742 98.7327 19.0283C100.504 22.3653 104.881 21.6873 102.064 26.3368C103.05 28.7328 104.044 29.7361 105.384 29.9538C106.535 30.1409 107.731 29.249 108.886 28.7159C110.339 28.0453 112.239 29.7561 113.242 31.485C113.912 32.6416 115.27 33.9808 114.47 35.2099C113.816 36.2143 113.598 36.087 112.643 37.0144C113.359 38.5171 113.87 39.8204 113.328 40.9408C112.785 42.0613 111.189 42.9992 111.002 44.887C110.868 46.2336 112.306 48.6946 113.591 49.9775C119.413 55.7914 120.446 53.5818 122.673 56.8004C123.468 57.9482 125.989 61.1502 128.828 63.2051C131.667 65.2599 135.04 68.0195 136.529 67.5251C138.445 66.8885 139.459 66.3431 140.292 66.4095C141.262 66.4869 139.956 69.7339 141.148 71.3027C141.982 71.5802 145.219 72.7516 147.448 75.1589C148.615 76.4203 148.324 79.1212 149.811 79.8418C150.676 80.2613 151.557 79.5696 152.516 79.6171C153.822 79.6814 155.558 79.4124 156.715 79.897C157.736 80.325 158.162 81.5136 159.516 81.5699C162.064 81.6765 163.489 79.8766 166.411 82.1157C170.694 85.3986 174.312 87.5551 179.463 88.6316C184.541 89.6493 189.535 90.7683 193.591 93.1706C197.097 95.2473 198.913 96.054 201.18 99.2508C205.014 104.657 209.646 111.387 207.408 119.465C204.108 131.375 204.51 122.9 205.481 123.128C205.817 123.207 205.764 124.752 204.784 126.166C205.493 120.031 207.451 130.356 204.016 133.049C204.016 133.049 200.792 132.327 198.356 133.448C196.824 134.153 196.581 135.958 196.705 135.249C197.117 132.901 197.214 140.437 196.468 142.086C195.798 143.566 196.744 147.975 193.489 150.072C197.728 141.277 195.09 151.322 190.599 156.577C192.874 164.445 182.942 162.387 160.995 162.781C156.762 162.856 174.999 181.814 153.312 164.254C151.447 162.744 148.195 162.302 146.037 162.427C142.67 162.623 139.843 164.316 137.176 166.735C135.344 168.397 134.814 170.287 131.91 170.043C127.507 171.339 124.152 171.404 117.124 173.005C110.699 174.469 103.682 173.129 96.6058 172.682C91.442 172.356 86.8366 172.585 83.1181 176.628C80.3261 181.343 68.4085 188.97 67.6342 191.507C67.1633 193.05 66.499 195.309 66.2828 196.427C66.1066 198.185 65.9941 199.455 65.4385 200.284C64.3773 201.865 62.61 201.929 62.0797 201.344C59.7012 198.68 60.2856 192.851 60.7224 188.205C61.1514 183.641 62.3086 180.979 61.855 176.742C61.0304 169.042 59.9073 165.996 57.1712 164.645C55.752 163.944 54.7017 162.758 53.9238 161.016C53.4875 160.04 53.1643 158.927 52.7237 157.651C52.0633 155.737 50.0692 153.085 47.9636 149.45C45.9579 145.989 45.4044 145.461 44.0995 141.071C42.822 136.774 46.4629 134.775 47.1707 132.674C47.9032 130.5 47.8212 130.832 46.3556 128.536C45.8932 127.881 44.9185 125.456 42.8712 125.262C40.3191 125.02 37.109 123.439 35.034 122.642C31.7254 119.405 34.0424 114.486 32.3482 110.494C30.8766 107.364 30.5801 105.453 30.6881 103.152C30.7598 101.625 33.1323 97.8764 33.5114 98.7932C32.8764 97.927 31.9311 97.2272 31.2528 95.798C30.8942 95.0426 28.8139 90.4248 27.8803 89.6996C26.3553 88.5134 26.8883 84.9984 26.1414 82.517C25.8267 81.47 24.1653 79.3885 23.3094 78.3517C20.215 74.6029 22.425 72.6574 24.2655 70.8951C25.7448 69.4782 28.2622 69.3875 28.7991 69.5588C29.6574 68.6529 31.6516 65.3605 30.2377 63.8961C27.3033 59.9809 22.7478 62.6821 18.5746 59.6377C17.1842 58.6234 14.6848 57.5832 13.7586 54.5366C12.7884 51.3462 12.5912 45.5302 9.5766 43.6952C5.23882 41.0548 0.578596 37.8531 1.98866 34.2921C2.41167 33.2233 2.46581 34.79 3.60687 33.7934C3.29567 32.8565 4.37872 32.6083 4.83479 32.4486C5.78561 31.0057 5.60135 30.462 6.11826 28.673C6.32783 27.9482 3.42072 26.27 4.70033 25.6894Z" fill="#581718" stroke="white" stroke-width="2" stroke-linejoin="round"/>
</svg>
