<svg width="119" height="150" viewBox="0 0 119 150" fill="none" xmlns="http://www.w3.org/2000/svg">
<path fill-rule="evenodd" clip-rule="evenodd" d="M67.255 9.93523C68.1682 12.7265 79.4554 17.0939 79.4723 22.5495C78.0355 31.3681 69.4594 30.9317 77.9209 37.9676C79.3689 39.1721 84.2299 40.7051 85.2018 51.3063C85.5749 55.3734 92.7226 57.8499 98.1318 58.804C103.596 59.7676 103.719 66.5068 98.0397 66.8444C95.387 67.0023 90.9328 71.3325 93.7758 74.5193C99.269 79.0335 96.0976 83.1755 99.1945 86.5452C101.76 89.3365 100.544 90.5867 103.033 93.6065C107.533 99.0663 99.8517 98.6221 102.199 104.576C103.446 107.74 104.897 110.148 104.021 115.284C106.403 121.385 115.918 120.064 116.981 124.925C117.034 125.163 117.346 125.268 117.356 125.538C98.1118 132.767 110 134.433 98.4842 137.861C85.2303 141.806 81.3781 138.128 81.0416 142.953C80.5486 150.015 66.5848 143.191 55.8515 148.163C53.626 149.194 49.5632 148.698 47.5142 145.304C45.8147 142.489 44.8716 139.632 41.6823 138.126C43.1507 136.106 43.4092 134.035 40.9502 132.198C35.8564 128.394 40.8008 123.229 38.6744 119.735C37.29 117.461 38.4082 109.352 35.3275 110.258C29.2513 112.046 34.2449 109.685 33.7494 107.98C32.095 102.283 25.7683 112.846 24.7447 108.54C23.9465 105.184 19.7511 109.696 15.6022 108.626L15.4802 107.857C15.5466 106.199 15.3711 104.358 15.0346 102.657C13.7631 96.2269 13.0257 98.0616 6.69593 98.0616C0.566913 98.0616 -1.52074 91.5732 6.73075 91.0604C12.2117 90.72 16.6623 74.2123 24.1357 74.0615C26.14 74.021 26.5693 70.1561 26.8992 66.3904C27.4903 59.634 27.2332 57.3056 28.8244 54.4837C31.5485 49.6538 28.9534 42.7645 34.119 38.6657C41.5842 32.7417 36.5175 33.8031 34.6183 31.7117C32.1786 29.0249 29.3715 28.5986 26.5567 28.7738C23.4183 28.9689 19.9354 27.3657 18.9592 24.1943C17.0277 17.9204 10.5098 17.4534 12.6122 11.0448C13.4178 8.58902 12.5043 6.08473 12.0411 4.76946C15.0624 3.51152 19.7624 3.17847 23.7717 2.45473C28.0648 1.67999 32.0222 1.4535 35.426 3.92648C35.7453 4.15859 36.0561 4.28661 36.4376 4.26129C40.7955 3.97257 46.1105 3.51046 51.397 6.78842C55.2094 9.15309 61.8468 11.3697 64.4342 10.6836L67.255 9.93523Z" fill="#781214" stroke="white" stroke-width="2" stroke-linejoin="round"/>
</svg>
