<svg width="208" height="63" viewBox="0 0 208 63" fill="none" xmlns="http://www.w3.org/2000/svg">
    <path
        d="M32.8572 8.26787L56.5104 31.5L32.8572 54.7375L9.20393 31.5L32.8572 8.26787ZM32.8572 3.15002L4 31.5L32.8572 59.8554L61.7143 31.5L32.8572 3.15002Z"
        fill="white" />
    <path
        d="M38.2635 24.461V26.1938V29.8102H34.5825L34.577 26.1938L34.5825 22.8088V20.188L32.8569 18.4928L31.1369 20.1826V22.8088H27.4558V18.6866L32.8569 13.3804L38.2635 18.6866V22.8088V24.461Z"
        fill="white" />
    <path
        d="M34.5829 33.1899H38.264L41.704 33.1952L44.3772 33.1899L46.0972 31.5001L44.3772 29.8102H41.704V26.1938H44.0978H45.9L51.3067 31.5001L45.9 36.8116H45.2318H41.704H38.264H34.5774L34.5829 33.1899Z"
        fill="white" />
    <path
        d="M27.4558 36.8116V33.1898L31.1369 33.1952V36.8116V40.1912V42.8174L32.8569 44.5072L34.5825 42.8174V40.1912H38.2635V44.3135L32.8569 49.6251L27.4558 44.3135V40.1912V36.8116Z"
        fill="white" />
    <path
        d="M19.8145 26.1938H23.89H24.0105H27.456H31.1371V29.8102H27.456H24.0105H21.3428L19.6173 31.5001L21.3428 33.1952L24.0105 33.1899V36.8116H19.8145L14.4133 31.5001L19.8145 26.1938Z"
        fill="white" />
</svg>