<svg width="171" height="136" viewBox="0 0 171 136" fill="none" xmlns="http://www.w3.org/2000/svg">
<path fill-rule="evenodd" clip-rule="evenodd" d="M140.696 7.79049C134.307 7.72296 127.581 13.642 129.397 8.53007C129.69 7.70609 130.276 5.1093 127.985 6.24311C123.618 8.40485 119.578 4.49458 114.534 4.49458C107.674 4.49458 112.113 16.6014 107.674 15.3237C106.295 14.9263 109.468 8.59758 106.733 8.93378C103.437 11.826 103.555 17.4967 99.4694 15.1215C94.1907 12.0531 102.759 8.38482 98.9314 5.36885C97.1954 4.00119 94.8918 5.3903 94.0219 7.1849C93.7796 9.99162 90.2253 16.3664 86.5567 15.4584C84.9901 15.0702 82.7903 15.5924 80.1674 13.7095C78.0154 12.465 67.9513 1.73675 66.2458 4.83079C64.5407 7.92483 64.4806 9.94274 62.7488 9.94274C61.0001 9.94274 58.1758 9.00094 55.8216 9.00094C52.9297 9.00094 52.0552 5.167 48.9622 4.86209C44.6789 5.9551 41.9017 3.89638 40.0458 2.4415C38.1234 0.933866 37.7995 0.149277 37.9458 3.09772C38.2092 8.40802 38.6776 14.0039 30.2633 10.8789C27.37 10.1105 26.3615 13.6311 24.5485 11.5569C21.3356 7.88086 18.846 11.3016 16.2885 12.3028C14.0648 13.1732 11.5851 11.8689 11.0924 13.0484C9.45908 16.9615 5.13289 17.8917 1.31694 17.1229C0.944558 20.671 0.710031 30.0899 2.08598 35.3675C5.02988 46.6605 13.3587 42.6834 17.8386 50.2149C19.7736 54.7191 20.7382 51.9335 22.4636 58.6399C24.2577 62.4141 37.2823 64.1057 32.6189 71.4195C28.9939 75.3494 26.3717 72.9658 24.1451 80.8359C22.7175 82.7199 18.5939 89.5817 13.3844 90.7233C4.74857 87.1165 6.00003 104.331 8.40593 105.319C11.2605 107.707 12.2004 107.35 19.5426 111.558C28.7175 115.629 30.7714 110.153 48.4312 115.838C57.8361 119.01 62.0396 114.686 70.5882 120.612C74.4541 123.189 78.3955 125.097 81.9073 128.096C83.738 127.521 85.4902 127.13 90.2242 126.381C109.227 122.046 98.0137 129.621 113.5 127.102C122.187 128.161 118.112 131.515 126.986 132.125C133.302 134.273 137.133 135.739 140.684 131.102C145.083 125.358 145.026 124.095 137.638 119.511C130.879 114.016 140.282 109.479 141.616 103.596C145.815 94.4602 155.772 98.2562 154.452 94.8935C154.288 86.3896 160.02 90.3554 161.496 84.7142C163.13 79.7035 163.596 73.7113 161.58 69.065C160.384 66.3058 155.729 61.3299 150.618 61.3299C142.26 61.3299 144.004 56.5749 149.608 53.3683C161.655 48.9766 163.507 53.4707 168.642 46.9365C170.749 44.2557 169.853 37.4526 166.961 35.1656C158.725 27.8543 150.111 25.3015 149.023 21.5051C150.364 19.7309 151.657 18.4744 153.487 17.4679C155.317 16.4621 157.684 15.7056 159.218 14.7396C170.964 7.34702 143.241 7.81721 140.696 7.79049Z" fill="#781214" stroke="white" stroke-width="2" stroke-linejoin="round"/>
</svg>
