<svg width="120" height="108" viewBox="0 0 120 108" fill="none" xmlns="http://www.w3.org/2000/svg">
<path fill-rule="evenodd" clip-rule="evenodd" d="M50.9387 98.7961C50.9201 98.6856 50.9053 98.5664 50.8954 98.437C50.6472 95.2905 48.3802 90.474 48.5968 86.9101C48.7111 85.0332 48.0584 84.0974 47.7705 82.5764C47.647 81.9255 47.5904 81.1673 47.6892 80.1822C47.9016 78.0666 46.3646 77.212 47.3618 74.03C48.3264 70.9536 45.8807 67.9165 47.5696 63.6014C49.0029 59.9398 45.4588 53.3642 46.5292 46.8532C46.7732 45.366 47.2106 43.0256 43.1819 45.7124C39.6104 48.0943 38.1071 44.7435 35.9221 46.4154C35.0391 47.0917 33.7658 45.954 32.7309 46.3605C30.8226 47.1107 29.7297 45.4733 28.614 45.3583C27.8939 45.2837 27.4603 45.2405 27.256 45.0583C27.2247 45.0302 27.1983 44.9985 27.1776 44.9633C26.9982 44.6581 27.2103 44.0606 27.6776 42.7706C28.3513 40.9127 28.0619 38.3139 23.8768 37.9854C19.6498 37.6534 20.9835 33.7614 19.1824 33.7797C18.0059 33.792 17.1693 32.0973 17.9812 31.1383C19.1065 29.8096 17.2583 29.3753 18.1852 27.5554C19.1174 25.7253 17.483 27.1675 16.8644 25.2773C16.6355 24.5778 14.6087 24.2247 14.4016 25.2407C14.0679 26.8812 11.9577 24.4965 10.4482 26.7965C9.1798 28.7293 9.65976 26.0323 7.18143 27.0852C5.51081 27.7949 5.08112 26.1396 3.70306 26.7687C3.40522 26.9048 3.06801 26.9382 2.72446 26.8964C2.48253 26.8668 2.23675 26.8 1.99939 26.7051C0.609377 26.1512 -0.504278 24.6443 0.942704 24.1118C1.43253 23.9321 0.825962 22.2349 2.16394 21.8403C2.6833 21.687 3.4956 21.7302 4.77942 22.1347C6.44547 22.6594 5.07198 21.2179 7.46416 20.7712C9.84403 18.9446 4.43797 19.6589 6.31465 18.4667C8.85416 16.8536 6.39625 14.3634 9.32432 15.359C12.1842 16.331 12.6638 14.3517 9.70302 13.9107C7.31998 13.5559 9.69951 10.9187 7.1178 11.052C5.28085 11.1469 4.14437 8.15452 3.10001 7.10969C2.12914 6.13872 4.94678 4.92018 5.41692 3.47127C5.4992 3.21771 5.59944 2.92791 5.72075 2.63004C6.37866 1.01374 7.647 -0.844846 9.92455 1.53213C12.0628 3.76386 14.2733 3.84016 16.8757 4.17495C17.2034 4.21715 17.5378 4.26359 17.8789 4.3188C19.5882 4.59592 21.3024 5.71179 23.9467 6.37611C25.2953 6.71512 26.2774 7.55563 27.3165 8.46858C28.3109 9.34249 29.3584 10.2828 30.83 10.9138C33.2458 11.9491 33.6308 14.5765 36.0676 14.2107C40.1301 13.6002 39.9553 17.2003 43.7252 18.0137C43.8167 18.0338 43.9017 18.0605 43.9816 18.0932C44.2228 18.1938 44.413 18.3528 44.5709 18.5515C45.4057 19.6033 45.3241 21.7756 46.9395 22.3534C49.5979 23.3037 50.452 25.7063 51.5175 27.4295C52.0294 28.2581 52.5903 28.9297 53.4244 29.2076C55.401 29.8666 56.5698 32.9318 55.6035 34.6178C51.9936 40.9138 59.661 34.1729 62.8771 39.1086C65.2562 42.759 71.8255 41.5141 70.6866 38.4841C70.5396 38.0926 70.3588 37.8911 70.1566 37.7902C69.325 37.3756 68.1382 38.6793 67.4944 35.4685C67.1885 33.9432 66.2978 31.702 72.3308 33.8427C72.3843 33.8617 72.4367 33.881 72.488 33.9011C74.2085 34.5731 74.9828 35.9031 76.5216 36.4021C77.5962 36.7503 78.3262 37.0774 78.835 37.4079C79.0791 37.5665 79.2721 37.7255 79.4282 37.8887C79.5942 38.062 79.718 38.2393 79.8164 38.4243C80.2697 39.275 80.1807 40.2843 81.1396 41.7761C82.6872 44.184 83.3831 45.2668 85.9546 47.7729C88.3566 50.1136 87.9712 54.9017 92.5091 56.0471C96.8556 57.1447 97.6416 59.7435 102.599 60.4497C103.045 60.513 103.412 60.6326 103.726 60.8003C103.996 60.9442 104.228 61.1232 104.437 61.3324C105.754 62.6494 106.207 65.1615 109.94 67.5901C110.625 68.0361 111.19 68.5418 111.689 69.0696C112.852 70.3001 113.662 71.6527 114.828 72.6564C116.288 73.9132 117.195 75.4567 117.744 77.378C117.992 78.2494 118.167 79.1982 118.285 80.2336C118.565 82.6714 119.599 85.5833 119.198 88.205C118.952 89.8027 120.168 90.3006 119.666 92.0281C119.57 92.3611 119.409 92.7402 119.161 93.1819C117.721 95.7502 116.253 97.5585 114.291 98.8035C112.756 99.7776 110.917 100.407 108.554 100.785C106.909 101.048 106.006 101.363 104.508 100.929C102.084 100.227 101.318 102.183 100.197 102.858C100.178 102.869 100.158 102.881 100.138 102.893C96.7885 104.88 93.7152 104.174 91.9859 102.149C90.503 100.413 87.8288 98.0835 87.8379 99.7723C85.604 101.367 85.1402 100.173 82.1924 104.674C82.1879 104.681 82.1829 104.688 82.1777 104.695C81.8914 105.097 81.2683 105.001 80.4103 105.174C79.9202 105.272 79.3533 105.458 78.7285 105.874C76.7804 107.17 74.2071 107.296 72.4198 107.007C72.1015 106.955 71.8079 106.891 71.5474 106.817C70.3951 106.491 69.3778 106.602 68.4625 106.805C66.7982 107.173 65.47 107.846 64.2776 106.747C62.4576 105.07 60.135 107.055 58.8498 104.815C57.31 102.131 56.4052 102.466 55.7789 101.984C55.4896 101.761 55.2596 101.363 55.0542 100.412C54.6783 98.6723 51.9553 101.138 51.1205 99.4045C51.067 99.293 51.0213 99.1643 50.9844 99.0162C50.9671 98.9473 50.9521 98.8741 50.9387 98.7961Z" fill="white"/>
</svg>
