<svg width="129" height="176" viewBox="0 0 129 176" fill="none" xmlns="http://www.w3.org/2000/svg" filter="drop-shadow(3px 5px 2px rgb(0 0 0 / 0.4))">
<path fill-rule="evenodd" clip-rule="evenodd" d="M93.244 4.01103C92.6983 11.3336 91.6704 21.2959 95.941 27.7917C98.5087 31.6967 103.161 31.9615 106.508 34.7605C107.551 35.6319 108.94 37.2377 109.939 38.6437C110.538 39.487 110.59 40.2586 111.088 40.7565C111.198 40.8666 112.005 41.514 112.536 42.3261C113.421 43.68 113.456 45.7138 113.731 46.2641C115.685 50.1727 120.692 50.3622 123.422 53.093C126.285 55.9567 125.409 58.9329 123.356 60.7331C120.855 62.9262 118.252 63.2828 116.564 66.5934C116.107 67.4899 116.082 68.8902 115.564 69.9094C115.243 70.5396 113.872 71.8795 113.364 72.4787C111.363 74.8363 107.83 79.776 104.077 79.7166C103.041 79.7 102.273 79.1947 101.359 79.4166C97.6433 80.3186 97.2104 89.9809 98.476 92.8646C99.5949 95.4143 103.909 96.4429 106.15 97.6893C107.632 98.5129 108.825 99.5391 110.377 100.321C112.283 101.281 115.408 101.889 117.497 102.08C119.758 102.285 122.008 101.559 123.76 102.077C128.233 103.4 129.751 116.65 122.755 116.024C120.589 115.83 118.364 114.68 115.987 115.548C112.116 116.961 111.145 121.823 111.191 125.432C111.252 130.157 114.688 132.524 118.007 134.968C121.504 137.541 127.145 136.382 125.548 142.085C124.687 145.159 121.343 148.21 121.148 151.196C121.367 152.455 122.149 153.62 122.419 154.652C123.853 160.145 118.801 160.832 115.262 161.56C113.54 161.914 111.517 161.333 110.267 161.16C106.519 160.64 103.342 157.357 99.4729 156.713C92.2239 155.507 87.0925 168.049 79.5611 164.051C77.1074 162.749 76.9597 162.386 74.0925 162.689C72.0773 162.902 70.1978 164.209 68.3116 164.464C62.5979 165.365 58.8526 161.407 53.6642 160.931C49.7751 160.575 45.655 162.373 43.0205 165.344C40.6217 168.049 40.0665 171.211 36.7924 173.164C33.8826 174.9 28.5549 174.745 26.9708 173.977C24.6486 172.85 23.8785 170.064 21.6805 168.946C20.0795 168.131 17.1349 167.523 16.8687 165.218C16.5315 162.298 20.7233 157.641 23.1552 156.323C24.1103 155.805 25.3899 155.758 26.3245 155.373C27.3196 154.963 27.9631 153.621 28.7438 152.841C29.2287 152.356 32.5886 154.895 33.3439 153.398C33.6417 152.808 29.2589 149.311 31.9363 149.639C32.3512 149.69 33.0151 150.274 33.5313 150.433C38.0635 151.827 33.5865 147.073 33.5865 145.723C33.5865 142.567 34.9807 143.741 37.2555 143.741C38.3564 143.741 39.609 140.954 39.8973 140.071C40.4065 138.513 41.621 138.339 42.3725 137.25C43.0353 136.289 43.273 134.469 43.273 132.439C43.273 130.971 44.8139 130.714 46.2078 129.614C47.2106 128.822 48.2849 125.54 48.7139 124.424C49.5585 122.227 51.9918 120.645 52.4542 118.127C53.3695 113.142 50.5944 108.523 49.6566 103.72C48.7754 99.2046 48.8556 94.4081 46.8379 90.1634C45.2204 86.7613 42.3858 83.7221 41.4364 80.025C41.1488 78.9063 41.0384 77.6044 40.6551 76.3236C40.2131 74.8462 38.9732 72.7541 38.8892 71.2239C38.7925 69.4659 40.4979 67.5131 40.5851 65.8665C40.6277 65.0534 40.0587 64.3086 39.9177 63.4916C39.8207 62.9272 40.1248 62.3628 39.9553 61.8015C38.1075 55.6894 34.115 51.757 28.8503 48.3914C25.7144 46.3865 22.3883 45.6012 19.2278 43.7528L17.1236 42.0729C13.8218 40.8842 8.23848 39.8851 6.29605 36.8037C5.21336 35.0861 5.45915 32.7904 5.01855 30.827C4.47316 28.3976 2.69494 26.3755 2.19984 23.8747C2.03316 23.0328 1.57744 19.9567 1.89145 19.2164C3.41614 15.6163 10.1138 12.2585 13.4279 11.2148C17.1036 10.057 20.8893 9.75144 24.5955 8.81492C29.1893 7.65404 29.12 13.6325 32.2798 13.7029C34.9649 13.7626 37.2425 11.8794 39.6343 10.9978C42.8971 9.79538 44.8902 11.6153 47.5763 13.3424C48.7065 14.0686 50.3131 14.4329 51.5934 15.1507C53.0439 15.9641 54.16 17.0863 55.2125 17.0381C58.7119 16.8771 59.5028 12.8317 62.2297 11.0836C66.3843 8.42033 72.8312 5.98252 77.5698 4.49845C78.8129 4.1088 79.9275 3.49301 81.3471 3.32386C82.0567 3.2391 82.8475 3.57389 83.5958 3.59077C85.463 3.63227 87.0116 1.88691 88.7153 1.89711C89.044 1.89922 93.2113 3.89849 93.244 4.01103Z" fill="#581718" stroke="white" stroke-width="2" stroke-linejoin="round"/>
</svg>
