<svg width="0" height="0" class="hidden">
  <symbol xmlns="http://www.w3.org/2000/svg" viewBox="0 0 80 65" id="arrow">
    <path
      d="M4 36H66.344L45.172 57.172C44.7938 57.5419 44.4927 57.9832 44.2862 58.4703C44.0797 58.9574 43.9718 59.4806 43.9689 60.0096C43.966 60.5387 44.0681 61.063 44.2692 61.5524C44.4703 62.0417 44.7665 62.4863 45.1407 62.8603C45.5148 63.2344 45.9594 63.5305 46.4488 63.7316C46.9382 63.9326 47.4625 64.0346 47.9916 64.0316C48.5206 64.0286 49.0438 63.9207 49.5309 63.7141C50.0179 63.5075 50.4591 63.2063 50.829 62.828L78.829 34.828C79.5789 34.0779 80.0001 33.0607 80.0001 32C80.0001 30.9393 79.5789 29.9221 78.829 29.172L50.829 1.172C50.4579 0.799936 50.0169 0.504862 49.5314 0.303733C49.046 0.102604 48.5255 -0.000616928 48 2.77387e-06C47.209 0.000171671 46.4358 0.234858 45.7782 0.674396C45.1205 1.11393 44.608 1.73858 44.3053 2.46938C44.0026 3.20018 43.9234 4.00432 44.0777 4.78013C44.2319 5.55594 44.6128 6.2686 45.172 6.828L66.344 28H4C2.93913 28 1.92172 28.4214 1.17157 29.1716C0.421427 29.9217 0 30.9391 0 32C0 33.0609 0.421427 34.0783 1.17157 34.8284C1.92172 35.5786 2.93913 36 4 36Z">
    </path>
  </symbol>

  <symbol id="location" viewBox="0 0 16 16" fill="none" xmlns="http://www.w3.org/2000/svg">
    <path
      d="M8 3.75C7.4561 3.75 6.92442 3.91128 6.47218 4.21346C6.01995 4.51563 5.66747 4.94512 5.45933 5.44762C5.25119 5.95012 5.19673 6.50305 5.30284 7.0365C5.40895 7.56995 5.67086 8.05995 6.05546 8.44454C6.44005 8.82914 6.93005 9.09105 7.4635 9.19716C7.99695 9.30327 8.54988 9.24881 9.05238 9.04067C9.55488 8.83253 9.98437 8.48005 10.2865 8.02782C10.5887 7.57558 10.75 7.0439 10.75 6.5C10.7492 5.77091 10.4592 5.07192 9.94363 4.55637C9.42808 4.04082 8.72909 3.75083 8 3.75ZM8 7.75C7.75277 7.75 7.5111 7.67669 7.30554 7.53934C7.09998 7.40199 6.93976 7.20676 6.84515 6.97835C6.75054 6.74995 6.72579 6.49861 6.77402 6.25614C6.82225 6.01366 6.9413 5.79093 7.11612 5.61612C7.29093 5.4413 7.51366 5.32225 7.75614 5.27402C7.99861 5.22579 8.24995 5.25054 8.47835 5.34515C8.70676 5.43976 8.90199 5.59998 9.03934 5.80554C9.17669 6.0111 9.25 6.25277 9.25 6.5C9.25 6.83152 9.1183 7.14946 8.88388 7.38388C8.64946 7.6183 8.33152 7.75 8 7.75ZM8 0.75C6.47551 0.751654 5.01394 1.35799 3.93596 2.43596C2.85799 3.51394 2.25165 4.97551 2.25 6.5C2.25 11.335 7.3525 14.9625 7.57 15.1144C7.69604 15.2026 7.84616 15.2499 8 15.2499C8.15384 15.2499 8.30396 15.2026 8.43 15.1144C9.39642 14.4021 10.2806 13.5846 11.0662 12.6769C12.8219 10.6606 13.75 8.52312 13.75 6.5C13.7483 4.97551 13.142 3.51394 12.064 2.43596C10.9861 1.35799 9.52449 0.751654 8 0.75ZM9.95625 11.6694C9.36033 12.3539 8.70576 12.985 8 13.5556C7.29424 12.985 6.63967 12.3539 6.04375 11.6694C5 10.4606 3.75 8.58187 3.75 6.5C3.75 5.37283 4.19777 4.29183 4.9948 3.4948C5.79183 2.69777 6.87283 2.25 8 2.25C9.12717 2.25 10.2082 2.69777 11.0052 3.4948C11.8022 4.29183 12.25 5.37283 12.25 6.5C12.25 8.58187 11 10.4606 9.95625 11.6694Z"
      fill="black" />
  </symbol>

  <symbol id="Logo" viewBox="0 0 35 35" xmlns="http://www.w3.org/2000/svg">
    <path
      d="M17.8909 31.8318L3.89295 17.8389L17.8909 3.84471L31.8901 17.8389L17.8909 31.8318ZM17.8909 34.9121L34.9702 17.8389L17.8909 0.765739L0.811501 17.8389L17.8909 34.9121Z" />
    <path
      d="M14.6931 22.0776L14.6918 21.035L14.6931 21.0336V18.8571H16.8718V21.035V23.0727V24.653L17.8903 25.6725L18.9088 24.6543L18.9102 23.0713L21.0889 23.0727V25.5554L17.8903 28.7515L14.6931 25.5554V23.0727V22.0776Z" />
    <path
      d="M16.8701 16.8215H14.6915L12.653 16.8201L11.0721 16.8215L10.0523 17.8396L11.0721 18.8578L12.653 18.8564V21.0356H11.2383H10.1694L6.97218 17.8396L10.1694 14.6436H10.5683H12.653H14.6901L14.6915 14.6422L16.8701 14.6436V16.8215Z" />
    <path
      d="M21.0889 14.6411L21.0875 14.6424L21.0889 16.8203L18.9088 16.819V14.6424L18.9102 12.6048L18.9088 11.0231L17.8903 10.0049L16.8718 11.0244V12.6048H14.6931V10.1206L17.8903 6.92459L21.0889 10.122V12.6048V14.6411Z" />
    <path
      d="M25.6109 21.0361H23.198L23.1259 21.0348H21.0888L21.0875 21.0361H18.9102V18.8596L21.0888 18.8583H23.1259L24.7081 18.8596L25.7267 17.8401L24.7081 16.8206L23.1259 16.8219V14.6427L25.6109 14.6441L28.8081 17.8401L25.6109 21.0361Z" />
  </symbol>

  <symbol id="phone" viewBox="0 0 21 21" xmlns="http://www.w3.org/2000/svg">
    <path
      d="M19 13.5126L14.5853 11.5335L14.5684 11.526C14.2815 11.4023 13.9681 11.3525 13.6569 11.3812C13.3457 11.4098 13.0467 11.516 12.7872 11.6901C12.7508 11.7144 12.7158 11.7407 12.6822 11.7688L10.5906 13.5501C9.37187 12.8891 8.11281 11.6404 7.45094 10.4366L9.23781 8.31226C9.26654 8.27798 9.29315 8.24197 9.3175 8.20445C9.48698 7.94585 9.58988 7.64934 9.61703 7.34134C9.64419 7.03334 9.59475 6.72341 9.47312 6.43914C9.47024 6.43369 9.46773 6.42806 9.46562 6.42226L7.4875 2.00008C7.32513 1.63025 7.04801 1.32253 6.69715 1.12245C6.34629 0.922374 5.94034 0.840567 5.53937 0.889139C4.17847 1.06791 2.92918 1.73596 2.02482 2.7685C1.12046 3.80105 0.622872 5.12748 0.624999 6.50008C0.624999 14.151 6.84906 20.3751 14.5 20.3751C15.8726 20.3772 17.199 19.8796 18.2316 18.9753C19.2641 18.0709 19.9322 16.8216 20.1109 15.4607C20.1595 15.0597 20.0777 14.6538 19.8776 14.3029C19.6775 13.9521 19.3698 13.6749 19 13.5126ZM14.5 18.1251C11.418 18.1214 8.4633 16.8954 6.28399 14.7161C4.10469 12.5368 2.87872 9.58208 2.875 6.50008C2.87285 5.72335 3.13654 4.96928 3.62226 4.36316C4.10798 3.75703 4.78647 3.33536 5.545 3.1682L7.30937 7.1057L5.51312 9.24508C5.48409 9.27968 5.45717 9.31599 5.4325 9.35383C5.25545 9.62435 5.15136 9.93605 5.13033 10.2587C5.10931 10.5813 5.17206 10.9039 5.3125 11.1951C6.19562 13.0026 8.01531 14.8101 9.84156 15.6951C10.1347 15.8341 10.4589 15.8946 10.7825 15.8708C11.106 15.8469 11.4179 15.7396 11.6875 15.5591C11.7238 15.5347 11.7585 15.5081 11.7916 15.4795L13.8944 13.6916L17.8319 15.4551C17.6647 16.2136 17.243 16.8921 16.6369 17.3778C16.0308 17.8635 15.2767 18.1272 14.5 18.1251Z" />
  </symbol>

  <symbol id="email" viewBox="0 0 22 16" xmlns="http://www.w3.org/2000/svg">
    <path
      d="M20 0.125H2C1.70163 0.125 1.41548 0.243526 1.2045 0.454505C0.993526 0.665483 0.875 0.951631 0.875 1.25V14C0.875 14.4973 1.07254 14.9742 1.42417 15.3258C1.77581 15.6775 2.25272 15.875 2.75 15.875H19.25C19.7473 15.875 20.2242 15.6775 20.5758 15.3258C20.9275 14.9742 21.125 14.4973 21.125 14V1.25C21.125 0.951631 21.0065 0.665483 20.7955 0.454505C20.5845 0.243526 20.2984 0.125 20 0.125ZM17.1078 2.375L11 7.97375L4.89219 2.375H17.1078ZM3.125 13.625V3.8075L10.2397 10.3297C10.4472 10.52 10.7185 10.6255 11 10.6255C11.2815 10.6255 11.5528 10.52 11.7603 10.3297L18.875 3.8075V13.625H3.125Z" />
  </symbol>

  <symbol id="twitter" viewBox="0 0 15 17" xmlns="http://www.w3.org/2000/svg">
    <path
      d="M14.7073 15.0386L9.94166 7.55425L14.6073 2.42222C14.771 2.23767 14.8554 1.99604 14.8421 1.7497C14.8289 1.50337 14.7191 1.27218 14.5365 1.10627C14.3539 0.940353 14.1133 0.853086 13.8668 0.863384C13.6204 0.873682 13.3879 0.980715 13.2198 1.16128L8.90182 5.9144L5.95729 1.28862C5.87267 1.15557 5.75585 1.04602 5.61766 0.97009C5.47946 0.894164 5.32434 0.854321 5.16666 0.854248H1.41666C1.24872 0.854325 1.08389 0.899513 0.939389 0.985086C0.794888 1.07066 0.676027 1.19348 0.595229 1.3407C0.514431 1.48793 0.474664 1.65415 0.480084 1.822C0.485503 1.98985 0.535911 2.15317 0.626038 2.29487L5.39166 9.77925L0.722913 14.9113C0.638382 15.0021 0.572714 15.1088 0.529715 15.2251C0.486716 15.3415 0.467242 15.4652 0.472421 15.5892C0.477599 15.7132 0.507328 15.8348 0.559884 15.9472C0.61244 16.0596 0.686778 16.1604 0.778589 16.2439C0.8704 16.3273 0.977859 16.3917 1.09474 16.4333C1.21161 16.4749 1.33559 16.4929 1.45947 16.4862C1.58335 16.4795 1.70467 16.4484 1.81641 16.3945C1.92815 16.3406 2.02808 16.265 2.11041 16.1722L6.43151 11.4191L9.37604 16.0449C9.46066 16.1779 9.57747 16.2875 9.71567 16.3634C9.85387 16.4393 10.009 16.4792 10.1667 16.4792H13.9167C14.0846 16.4792 14.2494 16.434 14.3939 16.3484C14.5384 16.2628 14.6573 16.14 14.7381 15.9928C14.8189 15.8456 14.8587 15.6793 14.8532 15.5115C14.8478 15.3436 14.7974 15.1803 14.7073 15.0386ZM10.6815 14.6042L3.12448 2.72925H4.65182L12.2088 14.6042H10.6815Z" />
  </symbol>

  <symbol id="instagram" viewBox="0 0 18 18" xmlns="http://www.w3.org/2000/svg">
    <path
      d="M9.33332 4.91675C8.59164 4.91675 7.86662 5.13668 7.24993 5.54874C6.63325 5.96079 6.1526 6.54646 5.86877 7.23168C5.58494 7.91691 5.51068 8.67091 5.65538 9.39834C5.80007 10.1258 6.15722 10.794 6.68167 11.3184C7.20612 11.8428 7.8743 12.2 8.60173 12.3447C9.32916 12.4894 10.0832 12.4151 10.7684 12.1313C11.4536 11.8475 12.0393 11.3668 12.4513 10.7501C12.8634 10.1335 13.0833 9.40843 13.0833 8.66675C13.0823 7.6725 12.6869 6.71928 11.9838 6.01624C11.2808 5.3132 10.3276 4.91778 9.33332 4.91675ZM9.33332 10.5417C8.96248 10.5417 8.59997 10.4318 8.29163 10.2258C7.98328 10.0197 7.74296 9.72689 7.60105 9.38428C7.45913 9.04167 7.422 8.66467 7.49435 8.30095C7.56669 7.93724 7.74527 7.60315 8.00749 7.34092C8.26972 7.0787 8.60381 6.90012 8.96753 6.82777C9.33124 6.75543 9.70824 6.79256 10.0509 6.93447C10.3935 7.07639 10.6863 7.31671 10.8923 7.62505C11.0984 7.9334 11.2083 8.29591 11.2083 8.66675C11.2083 9.16403 11.0108 9.64094 10.6591 9.99257C10.3075 10.3442 9.8306 10.5417 9.33332 10.5417ZM13.0833 0.229248H5.58332C4.34056 0.230695 3.14912 0.72502 2.27036 1.60378C1.39159 2.48255 0.897268 3.67399 0.895821 4.91675V12.4167C0.897268 13.6595 1.39159 14.8509 2.27036 15.7297C3.14912 16.6085 4.34056 17.1028 5.58332 17.1042H13.0833C14.3261 17.1028 15.5175 16.6085 16.3963 15.7297C17.275 14.8509 17.7694 13.6595 17.7708 12.4167V4.91675C17.7694 3.67399 17.275 2.48255 16.3963 1.60378C15.5175 0.72502 14.3261 0.230695 13.0833 0.229248ZM15.8958 12.4167C15.8958 13.1627 15.5995 13.878 15.0721 14.4055C14.5446 14.9329 13.8292 15.2292 13.0833 15.2292H5.58332C4.8374 15.2292 4.12203 14.9329 3.59458 14.4055C3.06714 13.878 2.77082 13.1627 2.77082 12.4167V4.91675C2.77082 4.17083 3.06714 3.45546 3.59458 2.92801C4.12203 2.40056 4.8374 2.10425 5.58332 2.10425H13.0833C13.8292 2.10425 14.5446 2.40056 15.0721 2.92801C15.5995 3.45546 15.8958 4.17083 15.8958 4.91675V12.4167ZM14.6458 4.60425C14.6458 4.85147 14.5725 5.09315 14.4352 5.29871C14.2978 5.50427 14.1026 5.66449 13.8742 5.7591C13.6458 5.85371 13.3944 5.87846 13.152 5.83023C12.9095 5.782 12.6868 5.66295 12.5119 5.48813C12.3371 5.31332 12.2181 5.09059 12.1698 4.84811C12.1216 4.60563 12.1464 4.3543 12.241 4.12589C12.3356 3.89749 12.4958 3.70226 12.7014 3.56491C12.9069 3.42756 13.1486 3.35425 13.3958 3.35425C13.7273 3.35425 14.0453 3.48594 14.2797 3.72036C14.5141 3.95478 14.6458 4.27273 14.6458 4.60425Z" />
  </symbol>

  <symbol id="facebook" viewBox="0 0 18 18" xmlns="http://www.w3.org/2000/svg">
    <path
      d="M8.99999 0.229248C7.33121 0.229248 5.6999 0.724099 4.31236 1.65122C2.92482 2.57835 1.84337 3.8961 1.20475 5.43786C0.566139 6.97961 0.399048 8.67611 0.724611 10.3128C1.05017 11.9495 1.85377 13.453 3.03377 14.633C4.21378 15.813 5.7172 16.6166 7.35391 16.9421C8.99063 17.2677 10.6871 17.1006 12.2289 16.462C13.7706 15.8234 15.0884 14.7419 16.0155 13.3544C16.9426 11.9668 17.4375 10.3355 17.4375 8.66675C17.435 6.42974 16.5453 4.28508 14.9635 2.70328C13.3817 1.12147 11.237 0.231729 8.99999 0.229248ZM9.93749 15.1613V10.8542H11.5C11.7486 10.8542 11.9871 10.7555 12.1629 10.5797C12.3387 10.4038 12.4375 10.1654 12.4375 9.91675C12.4375 9.66811 12.3387 9.42965 12.1629 9.25384C11.9871 9.07802 11.7486 8.97925 11.5 8.97925H9.93749V7.41675C9.93749 7.16811 10.0363 6.92965 10.2121 6.75383C10.3879 6.57802 10.6263 6.47925 10.875 6.47925H12.125C12.3736 6.47925 12.6121 6.38048 12.7879 6.20466C12.9637 6.02884 13.0625 5.79039 13.0625 5.54175C13.0625 5.29311 12.9637 5.05465 12.7879 4.87883C12.6121 4.70302 12.3736 4.60425 12.125 4.60425H10.875C10.1291 4.60425 9.41369 4.90056 8.88625 5.42801C8.3588 5.95546 8.06249 6.67083 8.06249 7.41675V8.97925H6.49999C6.25135 8.97925 6.01289 9.07802 5.83707 9.25384C5.66126 9.42965 5.56249 9.66811 5.56249 9.91675C5.56249 10.1654 5.66126 10.4038 5.83707 10.5797C6.01289 10.7555 6.25135 10.8542 6.49999 10.8542H8.06249V15.1613C6.42037 14.9243 4.92898 14.074 3.88846 12.7818C2.84794 11.4895 2.33552 9.851 2.45434 8.19613C2.57315 6.54126 3.31438 4.99281 4.52884 3.86242C5.7433 2.73202 7.34085 2.10359 8.99999 2.10359C10.6591 2.10359 12.2567 2.73202 13.4711 3.86242C14.6856 4.99281 15.4268 6.54126 15.5456 8.19613C15.6645 9.851 15.152 11.4895 14.1115 12.7818C13.071 14.074 11.5796 14.9243 9.93749 15.1613Z" />
  </symbol>


  <symbol id="linkedin" viewBox="0 0 18 18" xmlns="http://www.w3.org/2000/svg">
    <path
      d="M15.5416 0.229248H1.79165C1.37725 0.229248 0.979822 0.393868 0.686796 0.686894C0.393771 0.979919 0.229151 1.37735 0.229151 1.79175V15.5417C0.229151 15.9561 0.393771 16.3536 0.686796 16.6466C0.979822 16.9396 1.37725 17.1042 1.79165 17.1042H15.5416C15.9561 17.1042 16.3535 16.9396 16.6465 16.6466C16.9395 16.3536 17.1041 15.9561 17.1041 15.5417V1.79175C17.1041 1.37735 16.9395 0.979919 16.6465 0.686894C16.3535 0.393868 15.9561 0.229248 15.5416 0.229248ZM15.2291 15.2292H2.10415V2.10425H15.2291V15.2292ZM7.41665 12.4167V8.04175C7.41683 7.84692 7.47771 7.65699 7.59082 7.49835C7.70393 7.33972 7.86365 7.22027 8.04778 7.1566C8.23191 7.09293 8.43131 7.08821 8.61825 7.14309C8.80518 7.19798 8.97038 7.30974 9.09087 7.46284C9.56704 7.21325 10.0996 7.09073 10.6369 7.10712C11.1743 7.12351 11.6984 7.27826 12.1584 7.55641C12.6185 7.83457 12.9991 8.22671 13.2633 8.69493C13.5275 9.16316 13.6664 9.69162 13.6666 10.2292V12.4167C13.6666 12.6654 13.5679 12.9038 13.3921 13.0797C13.2162 13.2555 12.9778 13.3542 12.7291 13.3542C12.4805 13.3542 12.2421 13.2555 12.0662 13.0797C11.8904 12.9038 11.7916 12.6654 11.7916 12.4167V10.2292C11.7916 9.89773 11.66 9.57978 11.4255 9.34536C11.1911 9.11094 10.8732 8.97925 10.5416 8.97925C10.2101 8.97925 9.89219 9.11094 9.65777 9.34536C9.42335 9.57978 9.29165 9.89773 9.29165 10.2292V12.4167C9.29165 12.6654 9.19288 12.9038 9.01706 13.0797C8.84125 13.2555 8.60279 13.3542 8.35415 13.3542C8.10551 13.3542 7.86705 13.2555 7.69124 13.0797C7.51542 12.9038 7.41665 12.6654 7.41665 12.4167ZM6.16665 8.04175V12.4167C6.16665 12.6654 6.06788 12.9038 5.89206 13.0797C5.71625 13.2555 5.47779 13.3542 5.22915 13.3542C4.98051 13.3542 4.74205 13.2555 4.56624 13.0797C4.39042 12.9038 4.29165 12.6654 4.29165 12.4167V8.04175C4.29165 7.79311 4.39042 7.55465 4.56624 7.37883C4.74205 7.20302 4.98051 7.10425 5.22915 7.10425C5.47779 7.10425 5.71625 7.20302 5.89206 7.37883C6.06788 7.55465 6.16665 7.79311 6.16665 8.04175ZM3.97915 4.91675C3.97915 4.66952 4.05246 4.42785 4.18981 4.22229C4.32717 4.01672 4.52239 3.85651 4.7508 3.7619C4.9792 3.66729 5.23054 3.64253 5.47301 3.69077C5.71549 3.739 5.93822 3.85805 6.11303 4.03286C6.28785 4.20768 6.4069 4.43041 6.45513 4.67288C6.50336 4.91536 6.47861 5.16669 6.384 5.3951C6.28939 5.62351 6.12917 5.81873 5.92361 5.95608C5.71805 6.09344 5.47638 6.16675 5.22915 6.16675C4.89763 6.16675 4.57969 6.03505 4.34527 5.80063C4.11085 5.56621 3.97915 5.24827 3.97915 4.91675Z" />
  </symbol>

  <symbol id="youtube" viewBox="0 0 18 14" fill="none" xmlns="http://www.w3.org/2000/svg">
    <path
      d="M4.00367 1.50309C6.28075 1.3897 8.05196 1.33301 9.31731 1.33301C10.5827 1.33301 12.3545 1.38984 14.633 1.5035C15.2292 1.53326 15.7944 1.77837 16.2235 2.19333C16.6527 2.60828 16.9167 3.16488 16.9665 3.75976C17.0708 5.00594 17.123 6.1038 17.123 7.05336C17.123 8.01415 17.0696 9.12721 16.9628 10.3926C16.9132 10.9806 16.6543 11.5314 16.2331 11.9447C15.8119 12.3581 15.2564 12.6066 14.6675 12.6451C12.7199 12.7725 10.9365 12.8362 9.31731 12.8362C7.69865 12.8362 5.91593 12.7725 3.96916 12.6451C3.38048 12.6066 2.82512 12.3583 2.40395 11.9452C1.98279 11.5321 1.72374 10.9816 1.67387 10.3938C1.56569 9.11886 1.5116 8.00538 1.5116 7.05336C1.5116 6.11257 1.56432 5.01429 1.66976 3.75853C1.71975 3.16379 1.98383 2.60739 2.41297 2.19261C2.84211 1.77782 3.40717 1.53282 4.00326 1.50309H4.00367Z"
      stroke="#781214" stroke-width="1.75145" stroke-linejoin="round" />
    <path
      d="M8.08556 5.28107V8.8947C8.08553 8.95834 8.10275 9.0208 8.13539 9.07543C8.16803 9.13006 8.21487 9.17482 8.27092 9.20496C8.32698 9.23509 8.39015 9.24947 8.45372 9.24656C8.51729 9.24365 8.57889 9.22357 8.63196 9.18845L11.3422 7.39724C11.3906 7.36531 11.4304 7.3219 11.458 7.27087C11.4856 7.21985 11.5002 7.16279 11.5005 7.10478C11.5007 7.04676 11.4866 6.98958 11.4594 6.93833C11.4322 6.88707 11.3928 6.84333 11.3446 6.81099L8.63401 4.98856C8.58103 4.95296 8.51938 4.93244 8.45564 4.92917C8.3919 4.92591 8.32847 4.94003 8.27213 4.97004C8.2158 5.00004 8.16868 5.04479 8.13582 5.0995C8.10295 5.15422 8.08558 5.21684 8.08556 5.28066V5.28107Z"
      stroke="#781214" stroke-width="1.75145" stroke-linejoin="round" />
  </symbol>

  <symbol id="sideYoutube" width="31" height="23" viewBox="0 0 31 23" fill="none" xmlns="http://www.w3.org/2000/svg">
    <path
      d="M6.38987 2.28462C10.401 2.09487 13.5211 2 15.75 2C17.9789 2 21.1002 2.0951 25.1137 2.28531C26.164 2.33511 27.1596 2.7453 27.9155 3.43971C28.6715 4.13411 29.1365 5.06555 29.2243 6.06106C29.4081 8.14648 29.5 9.98371 29.5 11.5727C29.5 13.1806 29.4059 15.0432 29.2178 17.1607C29.1304 18.1448 28.6743 19.0665 27.9324 19.7582C27.1904 20.4499 26.2119 20.8658 25.1745 20.9303C21.7438 21.1434 18.6023 21.25 15.75 21.25C12.8987 21.25 9.75838 21.1434 6.32908 20.9303C5.29209 20.8659 4.31381 20.4503 3.57191 19.759C2.83001 19.0677 2.3737 18.1465 2.28586 17.1628C2.09529 15.0293 2 13.1659 2 11.5727C2 9.99837 2.09287 8.16046 2.27862 6.059C2.36668 5.06374 2.83185 4.13263 3.5878 3.4385C4.34374 2.74438 5.33911 2.33438 6.38914 2.28462H6.38987Z"
      stroke="white" stroke-width="2.40824" stroke-linejoin="round" />
    <path
      d="M13 8.06099V13.8142C12.9999 13.9155 13.0346 14.015 13.1003 14.102C13.166 14.1889 13.2603 14.2602 13.3732 14.3082C13.486 14.3562 13.6132 14.379 13.7412 14.3744C13.8692 14.3698 13.9932 14.3378 14.1 14.2819L19.5563 11.4301C19.6539 11.3793 19.734 11.3102 19.7896 11.2289C19.8452 11.1477 19.8745 11.0569 19.875 10.9645C19.8755 10.8721 19.8471 10.7811 19.7924 10.6995C19.7376 10.6179 19.6583 10.5483 19.5613 10.4968L14.1042 7.59529C13.9975 7.53861 13.8734 7.50593 13.7451 7.50073C13.6167 7.49554 13.489 7.51803 13.3756 7.56579C13.2622 7.61356 13.1673 7.68481 13.1012 7.77192C13.035 7.85903 13 7.95872 13 8.06034V8.06099Z"
      stroke="white" stroke-width="2.40824" stroke-linejoin="round" />
  </symbol>

  <symbol id="user" viewBox="0 0 22 21" xmlns="http://www.w3.org/2000/svg">
    <path
      d="M20.9734 18.6875C19.688 16.4316 17.6809 14.6738 15.2752 13.6972C16.4716 12.7999 17.3553 11.549 17.8011 10.1216C18.247 8.69424 18.2325 7.16274 17.7596 5.74407C17.2867 4.3254 16.3794 3.09148 15.1663 2.21709C13.9531 1.34271 12.4956 0.872192 11.0002 0.872192C9.50481 0.872192 8.04731 1.34271 6.83416 2.21709C5.62102 3.09148 4.71375 4.3254 4.24086 5.74407C3.76797 7.16274 3.75343 8.69424 4.19932 10.1216C4.6452 11.549 5.52889 12.7999 6.72523 13.6972C4.31953 14.6738 2.31245 16.4316 1.0271 18.6875C0.947454 18.8156 0.894371 18.9583 0.871006 19.1073C0.847641 19.2563 0.85447 19.4085 0.891088 19.5548C0.927706 19.7011 0.993366 19.8385 1.08416 19.9589C1.17496 20.0794 1.28904 20.1803 1.41963 20.2557C1.55021 20.3312 1.69463 20.3796 1.8443 20.3981C1.99397 20.4166 2.14584 20.4049 2.29087 20.3635C2.4359 20.3222 2.57114 20.2521 2.68854 20.1574C2.80595 20.0628 2.90312 19.9455 2.97429 19.8125C4.67304 16.8763 7.67304 15.125 11.0002 15.125C14.3274 15.125 17.3274 16.8772 19.0262 19.8125C19.1804 20.0605 19.425 20.2388 19.7083 20.3097C19.9916 20.3806 20.2914 20.3386 20.5443 20.1925C20.7972 20.0464 20.9833 19.8077 21.0634 19.5268C21.1434 19.246 21.1112 18.945 20.9734 18.6875ZM6.12523 8C6.12523 7.03582 6.41114 6.09329 6.94681 5.2916C7.48248 4.48991 8.24385 3.86507 9.13464 3.49609C10.0254 3.12711 11.0056 3.03057 11.9513 3.21868C12.8969 3.40678 13.7656 3.87108 14.4474 4.55286C15.1292 5.23464 15.5935 6.10328 15.7816 7.04894C15.9697 7.9946 15.8731 8.9748 15.5041 9.86559C15.1352 10.7564 14.5103 11.5177 13.7086 12.0534C12.9069 12.5891 11.9644 12.875 11.0002 12.875C9.70775 12.8735 8.46864 12.3594 7.55472 11.4455C6.64081 10.5316 6.12671 9.29248 6.12523 8Z" />
  </symbol>

  <symbol id="sms" viewBox="0 0 22 19" xmlns="http://www.w3.org/2000/svg">
    <path
      d="M19.25 0.125H2.75002C2.25274 0.125 1.77582 0.322544 1.42419 0.674175C1.07256 1.02581 0.875016 1.50272 0.875016 2V17C0.873519 17.3571 0.974938 17.707 1.16714 18.0079C1.35934 18.3089 1.63418 18.5481 1.95877 18.6969C2.20793 18.8135 2.47958 18.8743 2.7547 18.875C3.19498 18.8739 3.62068 18.7171 3.95658 18.4325L3.96783 18.4222L6.91908 15.875H19.25C19.7473 15.875 20.2242 15.6775 20.5758 15.3258C20.9275 14.9742 21.125 14.4973 21.125 14V2C21.125 1.50272 20.9275 1.02581 20.5758 0.674175C20.2242 0.322544 19.7473 0.125 19.25 0.125ZM18.875 13.625H6.50002C6.23 13.6245 5.96894 13.7218 5.76502 13.8987L3.12502 16.1778V2.375H18.875V13.625ZM6.87502 6.125C6.87502 5.82663 6.99354 5.54048 7.20452 5.3295C7.4155 5.11853 7.70165 5 8.00002 5H14C14.2984 5 14.5845 5.11853 14.7955 5.3295C15.0065 5.54048 15.125 5.82663 15.125 6.125C15.125 6.42337 15.0065 6.70952 14.7955 6.9205C14.5845 7.13147 14.2984 7.25 14 7.25H8.00002C7.70165 7.25 7.4155 7.13147 7.20452 6.9205C6.99354 6.70952 6.87502 6.42337 6.87502 6.125ZM6.87502 9.875C6.87502 9.57663 6.99354 9.29048 7.20452 9.07951C7.4155 8.86853 7.70165 8.75 8.00002 8.75H14C14.2984 8.75 14.5845 8.86853 14.7955 9.07951C15.0065 9.29048 15.125 9.57663 15.125 9.875C15.125 10.1734 15.0065 10.4595 14.7955 10.6705C14.5845 10.8815 14.2984 11 14 11H8.00002C7.70165 11 7.4155 10.8815 7.20452 10.6705C6.99354 10.4595 6.87502 10.1734 6.87502 9.875Z" />
  </symbol>


  <symbol id="massage" viewBox="0 0 22 21" xmlns="http://www.w3.org/2000/svg">
    <path
      d="M19.25 5.125H16.625V2.5C16.625 2.00272 16.4275 1.52581 16.0758 1.17417C15.7242 0.822544 15.2473 0.625 14.75 0.625H2.75C2.25272 0.625 1.77581 0.822544 1.42417 1.17417C1.07254 1.52581 0.875 2.00272 0.875 2.5V14.5C0.875094 14.7123 0.935268 14.9203 1.04857 15.0998C1.16186 15.2794 1.32366 15.4232 1.51526 15.5147C1.70685 15.6062 1.92042 15.6416 2.13129 15.6168C2.34216 15.592 2.5417 15.5081 2.70688 15.3747L5.375 13.2184V15.25C5.375 15.7473 5.57254 16.2242 5.92417 16.5758C6.27581 16.9275 6.75272 17.125 7.25 17.125H15.8909L19.2931 19.8747C19.4583 20.0081 19.6578 20.092 19.8687 20.1168C20.0796 20.1416 20.2931 20.1062 20.4847 20.0147C20.6763 19.9232 20.8381 19.7794 20.9514 19.5998C21.0647 19.4203 21.1249 19.2123 21.125 19V7C21.125 6.50272 20.9275 6.02581 20.5758 5.67417C20.2242 5.32254 19.7473 5.125 19.25 5.125ZM3.125 12.1441V2.875H14.375V10.375H5.71063C5.45202 10.3743 5.20106 10.4627 5 10.6253L3.125 12.1441ZM18.875 16.6441L17 15.1253C16.7999 14.9635 16.5504 14.8751 16.2931 14.875H7.625V12.625H14.75C15.2473 12.625 15.7242 12.4275 16.0758 12.0758C16.4275 11.7242 16.625 11.2473 16.625 10.75V7.375H18.875V16.6441Z" />
  </symbol>


  <symbol id="language" viewBox="0 0 21 21" xmlns="http://www.w3.org/2000/svg">
    <path
      d="M10.3027 0.207031C8.3002 0.207031 6.34264 0.800852 4.67759 1.9134C3.01254 3.02595 1.7148 4.60726 0.948459 6.45736C0.182121 8.30746 -0.0183874 10.3433 0.372288 12.3073C0.762963 14.2714 1.72728 16.0755 3.14328 17.4915C4.55929 18.9075 6.36339 19.8718 8.32745 20.2625C10.2915 20.6532 12.3273 20.4526 14.1774 19.6863C16.0275 18.92 17.6088 17.6222 18.7214 15.9572C19.8339 14.2921 20.4277 12.3346 20.4277 10.332C20.4248 7.64763 19.3571 5.07402 17.4589 3.17586C15.5607 1.2777 12.9871 0.210009 10.3027 0.207031ZM10.3027 17.7383C9.47379 16.7681 8.82627 15.6566 8.39118 14.457H12.2181C11.9704 15.1354 11.6564 15.7876 11.2806 16.4042C10.9913 16.8747 10.6643 17.3208 10.3027 17.7383ZM7.8193 12.207C7.63367 10.9639 7.63367 9.70014 7.8193 8.45703H12.7881C12.9737 9.70014 12.9737 10.9639 12.7881 12.207H7.8193ZM2.42774 10.332C2.42771 9.70013 2.50421 9.07054 2.65555 8.45703H5.54493C5.38868 9.70215 5.38868 10.9619 5.54493 12.207H2.65555C2.50421 11.5935 2.42771 10.9639 2.42774 10.332ZM10.3027 2.92578C11.1317 3.89594 11.7792 5.00742 12.2143 6.20703H8.3893C8.63691 5.52868 8.95093 4.87645 9.3268 4.25984C9.61542 3.78944 9.94181 3.34329 10.3027 2.92578ZM15.0587 8.45703H17.9481C18.2518 9.68858 18.2518 10.9755 17.9481 12.207H15.0606C15.2168 10.9619 15.2168 9.70215 15.0606 8.45703H15.0587ZM17.0059 6.20703H14.5881C14.2502 5.07301 13.7615 3.98956 13.1349 2.98578C14.7419 3.60962 16.1016 4.74055 17.0077 6.20703H17.0059ZM7.47055 2.98578C6.84401 3.98956 6.35525 5.07301 6.01743 6.20703H3.59774C4.50386 4.74055 5.86355 3.60962 7.47055 2.98578ZM3.59774 14.457H6.01743C6.35525 15.5911 6.84401 16.6745 7.47055 17.6783C5.86355 17.0544 4.50386 15.9235 3.59774 14.457ZM13.1349 17.6783C13.7615 16.6745 14.2502 15.5911 14.5881 14.457H17.0077C16.1016 15.9235 14.7419 17.0544 13.1349 17.6783Z" />
  </symbol>


  <symbol id="smallArrow" viewBox="0 0 18 11" xmlns="http://www.w3.org/2000/svg">
    <path
      d="M17.3882 2.80245L9.88818 10.3024C9.78367 10.4073 9.65947 10.4905 9.52273 10.5473C9.38598 10.6041 9.23937 10.6333 9.09131 10.6333C8.94324 10.6333 8.79663 10.6041 8.65989 10.5473C8.52314 10.4905 8.39895 10.4073 8.29443 10.3024L0.794432 2.80245C0.583088 2.5911 0.464355 2.30446 0.464355 2.00557C0.464355 1.70669 0.583088 1.42004 0.794432 1.2087C1.00578 0.997355 1.29242 0.878623 1.59131 0.878623C1.89019 0.878623 2.17684 0.997355 2.38818 1.2087L9.09224 7.91276L15.7963 1.20776C16.0077 0.996418 16.2943 0.877686 16.5932 0.877686C16.8921 0.877686 17.1787 0.996418 17.3901 1.20776C17.6014 1.41911 17.7201 1.70575 17.7201 2.00464C17.7201 2.30352 17.6014 2.59017 17.3901 2.80151L17.3882 2.80245Z" />
  </symbol>

  <symbol id="armenia" viewBox="0 -4 28 28" fill="none" xmlns="http://www.w3.org/2000/svg">
    <g clip-path="url(#clip0_503_4124)">
      <rect width="28" height="20" rx="2" fill="white" />
      <mask id="mask0_503_4124" style="mask-type:alpha" maskUnits="userSpaceOnUse" x="0" y="0" width="28" height="20">
        <rect width="28" height="20" rx="2" fill="white" />
      </mask>
      <g mask="url(#mask0_503_4124)">
        <path fill-rule="evenodd" clip-rule="evenodd" d="M0 13.3333H28V6.66666H0V13.3333Z" fill="#1047B9" />
        <path fill-rule="evenodd" clip-rule="evenodd" d="M0 6.66667H28V0H0V6.66667Z" fill="#F01C31" />
        <path fill-rule="evenodd" clip-rule="evenodd" d="M0 20H28V13.3333H0V20Z" fill="#FECB2F" />
      </g>
    </g>
    <defs>
      <clipPath id="clip0_503_4124">
        <rect width="28" height="20" rx="2" fill="white" />
      </clipPath>
    </defs>
  </symbol>


  <symbol id="english" viewBox="0 -4 28 28" fill="none" xmlns="http://www.w3.org/2000/svg">
    <g clip-path="url(#clip0_503_3486)">
      <rect width="28" height="20" rx="2" fill="white" />
      <mask id="mask0_503_3486" style="mask-type:alpha" maskUnits="userSpaceOnUse" x="0" y="0" width="28" height="20">
        <rect width="28" height="20" rx="2" fill="white" />
      </mask>
      <g mask="url(#mask0_503_3486)">
        <path fill-rule="evenodd" clip-rule="evenodd"
          d="M28 0H0V1.33333H28V0ZM28 2.66667H0V4H28V2.66667ZM0 5.33333H28V6.66667H0V5.33333ZM28 8H0V9.33333H28V8ZM0 10.6667H28V12H0V10.6667ZM28 13.3333H0V14.6667H28V13.3333ZM0 16H28V17.3333H0V16ZM28 18.6667H0V20H28V18.6667Z"
          fill="#D02F44" />
        <rect width="12" height="9.33333" fill="#46467F" />
        <g filter="url(#filter0_d_503_3486)">
          <path fill-rule="evenodd" clip-rule="evenodd"
            d="M2.66665 1.99999C2.66665 2.36818 2.36817 2.66666 1.99998 2.66666C1.63179 2.66666 1.33331 2.36818 1.33331 1.99999C1.33331 1.63181 1.63179 1.33333 1.99998 1.33333C2.36817 1.33333 2.66665 1.63181 2.66665 1.99999ZM5.33331 1.99999C5.33331 2.36818 5.03484 2.66666 4.66665 2.66666C4.29846 2.66666 3.99998 2.36818 3.99998 1.99999C3.99998 1.63181 4.29846 1.33333 4.66665 1.33333C5.03484 1.33333 5.33331 1.63181 5.33331 1.99999ZM7.33331 2.66666C7.7015 2.66666 7.99998 2.36818 7.99998 1.99999C7.99998 1.63181 7.7015 1.33333 7.33331 1.33333C6.96512 1.33333 6.66665 1.63181 6.66665 1.99999C6.66665 2.36818 6.96512 2.66666 7.33331 2.66666ZM10.6666 1.99999C10.6666 2.36818 10.3682 2.66666 9.99998 2.66666C9.63179 2.66666 9.33331 2.36818 9.33331 1.99999C9.33331 1.63181 9.63179 1.33333 9.99998 1.33333C10.3682 1.33333 10.6666 1.63181 10.6666 1.99999ZM3.33331 3.99999C3.7015 3.99999 3.99998 3.70152 3.99998 3.33333C3.99998 2.96514 3.7015 2.66666 3.33331 2.66666C2.96512 2.66666 2.66665 2.96514 2.66665 3.33333C2.66665 3.70152 2.96512 3.99999 3.33331 3.99999ZM6.66665 3.33333C6.66665 3.70152 6.36817 3.99999 5.99998 3.99999C5.63179 3.99999 5.33331 3.70152 5.33331 3.33333C5.33331 2.96514 5.63179 2.66666 5.99998 2.66666C6.36817 2.66666 6.66665 2.96514 6.66665 3.33333ZM8.66665 3.99999C9.03484 3.99999 9.33331 3.70152 9.33331 3.33333C9.33331 2.96514 9.03484 2.66666 8.66665 2.66666C8.29846 2.66666 7.99998 2.96514 7.99998 3.33333C7.99998 3.70152 8.29846 3.99999 8.66665 3.99999ZM10.6666 4.66666C10.6666 5.03485 10.3682 5.33333 9.99998 5.33333C9.63179 5.33333 9.33331 5.03485 9.33331 4.66666C9.33331 4.29847 9.63179 3.99999 9.99998 3.99999C10.3682 3.99999 10.6666 4.29847 10.6666 4.66666ZM7.33331 5.33333C7.7015 5.33333 7.99998 5.03485 7.99998 4.66666C7.99998 4.29847 7.7015 3.99999 7.33331 3.99999C6.96512 3.99999 6.66665 4.29847 6.66665 4.66666C6.66665 5.03485 6.96512 5.33333 7.33331 5.33333ZM5.33331 4.66666C5.33331 5.03485 5.03484 5.33333 4.66665 5.33333C4.29846 5.33333 3.99998 5.03485 3.99998 4.66666C3.99998 4.29847 4.29846 3.99999 4.66665 3.99999C5.03484 3.99999 5.33331 4.29847 5.33331 4.66666ZM1.99998 5.33333C2.36817 5.33333 2.66665 5.03485 2.66665 4.66666C2.66665 4.29847 2.36817 3.99999 1.99998 3.99999C1.63179 3.99999 1.33331 4.29847 1.33331 4.66666C1.33331 5.03485 1.63179 5.33333 1.99998 5.33333ZM3.99998 5.99999C3.99998 6.36819 3.7015 6.66666 3.33331 6.66666C2.96512 6.66666 2.66665 6.36819 2.66665 5.99999C2.66665 5.6318 2.96512 5.33333 3.33331 5.33333C3.7015 5.33333 3.99998 5.6318 3.99998 5.99999ZM5.99998 6.66666C6.36817 6.66666 6.66665 6.36819 6.66665 5.99999C6.66665 5.6318 6.36817 5.33333 5.99998 5.33333C5.63179 5.33333 5.33331 5.6318 5.33331 5.99999C5.33331 6.36819 5.63179 6.66666 5.99998 6.66666ZM9.33331 5.99999C9.33331 6.36819 9.03484 6.66666 8.66665 6.66666C8.29846 6.66666 7.99998 6.36819 7.99998 5.99999C7.99998 5.6318 8.29846 5.33333 8.66665 5.33333C9.03484 5.33333 9.33331 5.6318 9.33331 5.99999ZM9.99998 8C10.3682 8 10.6666 7.70152 10.6666 7.33333C10.6666 6.96514 10.3682 6.66666 9.99998 6.66666C9.63179 6.66666 9.33331 6.96514 9.33331 7.33333C9.33331 7.70152 9.63179 8 9.99998 8ZM7.99998 7.33333C7.99998 7.70152 7.7015 8 7.33331 8C6.96512 8 6.66665 7.70152 6.66665 7.33333C6.66665 6.96514 6.96512 6.66666 7.33331 6.66666C7.7015 6.66666 7.99998 6.96514 7.99998 7.33333ZM4.66665 8C5.03484 8 5.33331 7.70152 5.33331 7.33333C5.33331 6.96514 5.03484 6.66666 4.66665 6.66666C4.29846 6.66666 3.99998 6.96514 3.99998 7.33333C3.99998 7.70152 4.29846 8 4.66665 8ZM2.66665 7.33333C2.66665 7.70152 2.36817 8 1.99998 8C1.63179 8 1.33331 7.70152 1.33331 7.33333C1.33331 6.96514 1.63179 6.66666 1.99998 6.66666C2.36817 6.66666 2.66665 6.96514 2.66665 7.33333Z"
            fill="url(#paint0_linear_503_3486)" />
        </g>
      </g>
    </g>
    <defs>
      <filter id="filter0_d_503_3486" x="1.33331" y="1.33333" width="9.33331" height="7.66667"
        filterUnits="userSpaceOnUse" color-interpolation-filters="sRGB">
        <feFlood flood-opacity="0" result="BackgroundImageFix" />
        <feColorMatrix in="SourceAlpha" type="matrix" values="0 0 0 0 0 0 0 0 0 0 0 0 0 0 0 0 0 0 127 0"
          result="hardAlpha" />
        <feOffset dy="1" />
        <feColorMatrix type="matrix" values="0 0 0 0 0 0 0 0 0 0 0 0 0 0 0 0 0 0 0.06 0" />
        <feBlend mode="normal" in2="BackgroundImageFix" result="effect1_dropShadow_503_3486" />
        <feBlend mode="normal" in="SourceGraphic" in2="effect1_dropShadow_503_3486" result="shape" />
      </filter>
      <linearGradient id="paint0_linear_503_3486" x1="1.33331" y1="1.33333" x2="1.33331" y2="7.99999"
        gradientUnits="userSpaceOnUse">
        <stop stop-color="white" />
        <stop offset="1" stop-color="#F0F0F0" />
      </linearGradient>
      <clipPath id="clip0_503_3486">
        <rect width="28" height="20" rx="2" fill="white" />
      </clipPath>
    </defs>
  </symbol>


  <symbol id="russia" viewBox="0 0 64 64" xmlns="http://www.w3.org/2000/svg" xmlns:xlink="http://www.w3.org/1999/xlink"
    aria-hidden="true" role="img" class="iconify iconify--emojione" preserveAspectRatio="xMidYMid meet">
    <path d="M31.9 2c-13 0-24.1 8.4-28.2 20h56.6C56.1 10.4 45 2 31.9 2z" fill="#f9f9f9"></path>
    <path d="M31.9 62c13.1 0 24.2-8.4 28.3-20H3.7c4.1 11.7 15.2 20 28.2 20z" fill="#ed4c5c"></path>
    <path d="M3.7 22C2.6 25.1 2 28.5 2 32s.6 6.9 1.7 10h56.6c1.1-3.1 1.7-6.5 1.7-10s-.6-6.9-1.7-10H3.7" fill="#428bc1">
    </path>
  </symbol>

  <symbol id="calendar" viewBox="0 0 14 15" fill="none" xmlns="http://www.w3.org/2000/svg">
    <path
      d="M12 1.75H10.75V1.5C10.75 1.30109 10.671 1.11032 10.5303 0.96967C10.3897 0.829018 10.1989 0.75 10 0.75C9.80109 0.75 9.61032 0.829018 9.46967 0.96967C9.32902 1.11032 9.25 1.30109 9.25 1.5V1.75H4.75V1.5C4.75 1.30109 4.67098 1.11032 4.53033 0.96967C4.38968 0.829018 4.19891 0.75 4 0.75C3.80109 0.75 3.61032 0.829018 3.46967 0.96967C3.32902 1.11032 3.25 1.30109 3.25 1.5V1.75H2C1.66848 1.75 1.35054 1.8817 1.11612 2.11612C0.881696 2.35054 0.75 2.66848 0.75 3V13C0.75 13.3315 0.881696 13.6495 1.11612 13.8839C1.35054 14.1183 1.66848 14.25 2 14.25H12C12.3315 14.25 12.6495 14.1183 12.8839 13.8839C13.1183 13.6495 13.25 13.3315 13.25 13V3C13.25 2.66848 13.1183 2.35054 12.8839 2.11612C12.6495 1.8817 12.3315 1.75 12 1.75ZM3.25 3.25C3.25 3.44891 3.32902 3.63968 3.46967 3.78033C3.61032 3.92098 3.80109 4 4 4C4.19891 4 4.38968 3.92098 4.53033 3.78033C4.67098 3.63968 4.75 3.44891 4.75 3.25H9.25C9.25 3.44891 9.32902 3.63968 9.46967 3.78033C9.61032 3.92098 9.80109 4 10 4C10.1989 4 10.3897 3.92098 10.5303 3.78033C10.671 3.63968 10.75 3.44891 10.75 3.25H11.75V4.75H2.25V3.25H3.25ZM2.25 12.75V6.25H11.75V12.75H2.25ZM8 8C8 8.19778 7.94135 8.39112 7.83147 8.55557C7.72159 8.72002 7.56541 8.84819 7.38268 8.92388C7.19996 8.99957 6.99889 9.01937 6.80491 8.98079C6.61093 8.9422 6.43275 8.84696 6.29289 8.70711C6.15304 8.56725 6.0578 8.38907 6.01921 8.19509C5.98063 8.00111 6.00043 7.80004 6.07612 7.61732C6.15181 7.43459 6.27998 7.27841 6.44443 7.16853C6.60888 7.05865 6.80222 7 7 7C7.26522 7 7.51957 7.10536 7.70711 7.29289C7.89464 7.48043 8 7.73478 8 8ZM11 8C11 8.19778 10.9414 8.39112 10.8315 8.55557C10.7216 8.72002 10.5654 8.84819 10.3827 8.92388C10.2 8.99957 9.99889 9.01937 9.80491 8.98079C9.61093 8.9422 9.43275 8.84696 9.29289 8.70711C9.15304 8.56725 9.0578 8.38907 9.01921 8.19509C8.98063 8.00111 9.00043 7.80004 9.07612 7.61732C9.15181 7.43459 9.27998 7.27841 9.44443 7.16853C9.60888 7.05865 9.80222 7 10 7C10.2652 7 10.5196 7.10536 10.7071 7.29289C10.8946 7.48043 11 7.73478 11 8ZM5 11C5 11.1978 4.94135 11.3911 4.83147 11.5556C4.72159 11.72 4.56541 11.8482 4.38268 11.9239C4.19996 11.9996 3.99889 12.0194 3.80491 11.9808C3.61093 11.9422 3.43275 11.847 3.29289 11.7071C3.15304 11.5673 3.0578 11.3891 3.01921 11.1951C2.98063 11.0011 3.00043 10.8 3.07612 10.6173C3.15181 10.4346 3.27998 10.2784 3.44443 10.1685C3.60888 10.0586 3.80222 10 4 10C4.26522 10 4.51957 10.1054 4.70711 10.2929C4.89464 10.4804 5 10.7348 5 11ZM8 11C8 11.1978 7.94135 11.3911 7.83147 11.5556C7.72159 11.72 7.56541 11.8482 7.38268 11.9239C7.19996 11.9996 6.99889 12.0194 6.80491 11.9808C6.61093 11.9422 6.43275 11.847 6.29289 11.7071C6.15304 11.5673 6.0578 11.3891 6.01921 11.1951C5.98063 11.0011 6.00043 10.8 6.07612 10.6173C6.15181 10.4346 6.27998 10.2784 6.44443 10.1685C6.60888 10.0586 6.80222 10 7 10C7.26522 10 7.51957 10.1054 7.70711 10.2929C7.89464 10.4804 8 10.7348 8 11ZM11 11C11 11.1978 10.9414 11.3911 10.8315 11.5556C10.7216 11.72 10.5654 11.8482 10.3827 11.9239C10.2 11.9996 9.99889 12.0194 9.80491 11.9808C9.61093 11.9422 9.43275 11.847 9.29289 11.7071C9.15304 11.5673 9.0578 11.3891 9.01921 11.1951C8.98063 11.0011 9.00043 10.8 9.07612 10.6173C9.15181 10.4346 9.27998 10.2784 9.44443 10.1685C9.60888 10.0586 9.80222 10 10 10C10.2652 10 10.5196 10.1054 10.7071 10.2929C10.8946 10.4804 11 10.7348 11 11Z"
      fill="black" />
  </symbol>

  <symbol id="icon-arrow" viewBox="0 0 14 8" xmlns="http://www.w3.org/2000/svg">
    <path fill-rule="evenodd" clip-rule="evenodd"
      d="M6.29318 7.707C6.48071 7.89447 6.73502 7.99979 7.00018 7.99979C7.26534 7.99979 7.51965 7.89447 7.70718 7.707L13.3642 2.05C13.5463 1.8614 13.6471 1.6088 13.6449 1.3466C13.6426 1.0844 13.5374 0.833589 13.352 0.648181C13.1666 0.462773 12.9158 0.357604 12.6536 0.355326C12.3914 0.353047 12.1388 0.453842 11.9502 0.636L7.00018 5.586L2.05018 0.636C1.86158 0.453842 1.60898 0.353047 1.34678 0.355326C1.08458 0.357604 0.83377 0.462773 0.648362 0.648181C0.462954 0.833589 0.357785 1.0844 0.355507 1.3466C0.353228 1.6088 0.454022 1.8614 0.636181 2.05L6.29318 7.707Z" />
  </symbol>

</svg>