<svg width="159" height="209" viewBox="0 0 159 209" fill="none" xmlns="http://www.w3.org/2000/svg">
<path fill-rule="evenodd" clip-rule="evenodd" d="M139.031 201.871C142.573 195.763 146.446 173.068 139.717 157.407C138.183 154.003 130.935 152.78 129.638 149.32C126.698 141.483 126.393 144.917 124.686 143.954C121.662 139.137 123.779 139.23 129.697 139.212C132.924 139.202 138.05 150.181 140.56 149.34C145.531 147.674 176.37 118.049 139.524 123.258C135.931 119.707 142.411 115.839 140.38 111.854C137.811 106.811 130.681 101.941 125.051 97.1447C123.306 95.6585 120.899 94.2617 117.739 92.7059C113.423 90.3971 108.266 96.4635 112.417 87.2479C123.389 87.2264 132.095 94.4983 137.482 84.668C138.156 76.7925 146.618 69.6919 144.525 61.5182C144.525 58.1597 135.138 50.3071 128.485 49.6224C125.664 49.332 123.355 48.9022 120.597 49.185C109.782 50.8079 117.617 42.2816 109.893 39.9369C107.79 39.0156 106.675 38.4965 101.031 38.4803C98.8028 38.4251 96.5066 37.5076 93.395 41.5304C87.6398 44.8024 82.5632 46.789 80.1236 45.7839C75.7204 42.4592 73.0398 57.072 71.8239 41.1003C69.6378 33.2861 67.7797 36.6537 63.0056 31.2288C62.2865 30.4118 61.5164 29.379 60.6777 28.0813C57.4687 23.1153 53.8736 31.8752 54.6658 24.951C55.0393 21.6878 53.6542 19.3446 53.7941 19.7532C54.4422 21.6407 54.6785 18.2509 50.2212 12.1553C43.7405 2.92943 33.6869 7.08342 31.2335 4.23028C29.6884 2.09385 27.5913 1.49638 25.0686 1.66484C23.4068 1.77597 21.233 1.62367 19.1984 2.24227C12.5521 4.26405 5.31721 9.36125 4.80734 15.3833C4.63433 18.3613 3.67297 22.2115 3.20108 23.4198C-2.76408 36.4624 14.4678 32.818 5.99835 45.9274C2.86316 50.0954 9.37087 50.0789 8.94785 62.3028C13.3345 65.835 15.9454 62.6932 15.5372 63.3311C18.8053 71.4675 11.9421 68.8499 17.0935 71.3971C23.4096 74.5204 14.3989 81.1438 12.7694 88.4907C11.2282 95.4391 11.2223 97.0709 19.2561 98.3538C24.1997 98.7413 26.42 104.728 31.5553 105.63C36.0193 105.976 35.6181 110.274 42.4627 110.545C47.5779 111.548 46.268 116.508 44.3499 119.863C41.867 124.206 44.1403 123.599 42.9848 127.791C42.238 130.5 42.7408 132.48 44.9164 134.739C48.419 138.375 45.159 141.467 47.6957 144.228C50.4065 147.874 45.665 150.63 51.2078 154.563C61.0702 161.562 52.1594 163.305 60.1679 170.034C61.7284 171.345 62.3536 173.041 62.3536 176.385C61.8061 181.183 62.2267 182.149 64.7181 186.925C66.7554 190.83 68.6177 200.793 69.0189 206.891C69.8013 206.988 70.2531 207.376 71.2535 207.269C74.5839 206.91 74.3114 205.445 75.3726 205.46C77.7103 205.492 79.0409 205.306 80.7959 203.593C81.8083 202.605 82.0681 202.683 83.386 202.212C85.3499 201.509 87.1538 200.057 88.8121 197.93C90.7458 197.133 92.6422 196.223 94.4622 195.085C95.3958 194.502 95.5013 194.433 96.6058 194.536C97.9125 195.591 99.6777 194.436 102.123 192.816C103.414 191.96 103.747 191.93 105.058 192.781L106.55 193.75L109.081 194.522C110.977 195.1 110.664 195.269 111.914 196.472C113.184 197.696 115.368 197.608 118.223 196.555C120.304 195.514 120.559 195.937 123.37 197.266C126.733 198.857 126.729 194.785 130.488 200.497C131.737 202.395 137.928 201.93 139.031 201.871Z" fill="#781214" stroke="white" stroke-width="2" stroke-linejoin="round"/>
</svg>
