<svg width="146" height="157" viewBox="0 0 146 157" fill="none" xmlns="http://www.w3.org/2000/svg">
<path fill-rule="evenodd" clip-rule="evenodd" d="M19.8409 17.5838C18.9661 16.3392 12.9257 16.0674 11.4794 13.2476C9.3826 9.15977 8.4244 1.27027 11.5944 1.6747C15.9955 2.23633 18.9095 2.15544 25.0395 7.13868C28.6255 10.0537 33.1623 8.82637 37.6707 6.89497C38.7523 6.43181 42.3562 3.86248 45.0564 2.72024C45.7826 2.41323 46.4672 2.69455 47.1441 4.46418C47.8382 6.27812 47.7728 9.1253 48.5749 9.7548C54.6702 14.5429 54.7261 12.9955 50.562 19.5859C49.538 21.2067 50.8447 26.5069 53.0917 26.8912C60.2183 28.1101 60.5273 22.5013 63.1527 23.5489C64.876 24.2368 66.8607 28.8785 67.4553 30.0851C69.0788 33.3793 77.6204 30.1921 75.0274 39.5104C73.5456 44.8348 72.3937 41.8895 65.7608 44.8045C64.331 45.433 56.7431 42.4585 56.8201 43.1798L57.3918 48.5312C57.6925 51.3453 59.9102 53.3576 61.8344 52.1665L63.248 51.2912C63.652 50.4162 68.027 49.0021 67.8924 49.0021L68.5506 49.8679L69.7138 57.0959L73.099 59.5306C80.8625 60.605 78.6 66.1277 80.8396 66.1277C82.7244 66.1277 83.7297 64.9745 85.0803 64.3099C87.8357 62.9549 88.4458 59.8 90.3306 61.0787C91.0708 61.5499 93.2977 64.2743 93.3596 65.2523C93.6511 69.8751 98.5856 67.5991 100.158 69.3589C100.712 69.9792 101.766 71.2199 105.215 68.377C105.826 67.8741 107.63 69.0357 108.345 68.466C108.9 68.0228 108.344 65.814 108.967 65.5875C109.766 65.297 110.807 65.738 111.46 65.5639C114.327 64.799 115.485 65.4124 115.909 68.3492C116.149 70.0147 112.835 69.7626 112.072 73.0613C111.526 75.4224 112.209 78.9146 114.428 80.1971C116.517 81.4052 116.986 78.1458 118.669 78.1778C120.082 78.2049 121.428 81.6809 121.428 82.6881C121.429 85.3805 121.74 86.8688 123.111 88.8143C123.911 89.9491 128.81 85.5556 130.246 90.1605C133.89 95.3389 141.201 96.9763 142.699 97.0941C145.133 97.2861 145.924 101.619 143.193 106.779C140.31 112.228 138.888 118.579 134.285 121.868C131.672 123.734 128.16 122.675 125.938 125.368C117.379 127.916 112.346 129.092 110.567 131.558C109.388 133.19 111.306 136.703 109.986 137.62C109.015 138.294 105.967 135.469 106.39 138.001C106.844 140.723 105.221 146.903 102.158 146.763C97.8162 146.566 95.4589 147.685 93.104 146.584C86.0765 143.296 81.8604 139.991 73.5098 138.489C67.4609 137.402 68.7757 133.875 65.9063 132.73C62.6836 131.444 58.6067 132.233 56.5592 135.752C54.711 138.927 57.4607 142.878 55.3302 145.23C42.5246 159.368 41.578 142.029 29.1815 139.831C28.4149 139.695 24.5737 143.409 21.968 147.63C20.9233 149.323 19.1831 149.673 18.1208 150.738C9.61257 159.264 14.4901 153.606 9.30629 149.136C2.33897 143.128 3.41113 143.191 6.6286 140.276C11.7351 132.438 4.86762 132.26 2.18428 128.69C-1.31836 124.031 4.90278 119.327 6.89866 114.679C11.9035 103.024 20.5024 109.868 20.1669 103.228C19.6525 96.371 27.9356 102.225 28.0471 87.7364C28.1149 78.9209 25.6978 73.2709 15.4445 71.8086C7.15394 70.6263 10.6123 64.3109 18.7804 62.1105C26.393 60.0595 36.6323 61.9951 34.5798 49.7449C33.4542 43.0282 16.1274 36.4716 14.7672 32.638C14.6002 31.3016 15.3541 29.4497 16.5806 28.625C19.2024 26.8631 24.4337 25.7402 25.4784 22.54C26.3044 20.01 21.9395 18.0269 19.8409 17.5838Z" fill="#781214" stroke="white" stroke-width="2" stroke-linejoin="round"/>
</svg>
