<svg width="137" height="122" viewBox="0 0 137 122" fill="none" xmlns="http://www.w3.org/2000/svg">
<path fill-rule="evenodd" clip-rule="evenodd" d="M128.116 93.8886C128.064 88.5048 126.943 85.268 126.561 84.2373C126.012 82.039 123.772 79.42 126.302 75.2337C127.935 72.5307 128.487 67.6572 125.394 66.0996C121.229 61.4951 119.84 59.4441 121.456 55.887C127.162 43.3311 121.152 47.0768 128.307 40.1962C130.435 39.1271 131.81 36.0911 135.589 35.3002C136.222 35.168 135.665 34.4442 135.648 34.3426C134.967 30.452 134.15 30.6032 132.396 27.2353C129.708 22.0755 133.864 13.7327 134.352 12.2113C127.617 10.1125 115.337 11.7749 107.338 5.9898C99.954 0.649955 99.4719 1.29882 93.8102 2.26312C91.1997 2.70764 88.5694 3.2647 86.5637 4.82016C83.9852 6.82014 81.7126 9.69753 79.55 9.82906C72.4716 9.69612 64.6311 13.107 61.131 13.4161C53.0876 13.024 48.5916 11.4503 41.4425 11.5108C36.2759 11.5544 28.7467 15.1102 23.2752 23.4938C17.5179 29.2092 14.7875 26.0596 12.7086 39.489C3.86177 43.6103 3.55868 47.6082 1.83496 56.6733C8.62681 57.2944 10.3938 59.7164 11.9051 61.8989C14.8951 66.2188 17.1649 72.3278 21.4369 75.8632C22.8343 77.0195 24.3927 78.8514 24.6804 83.868C25.371 95.9337 22.7376 100.677 27.3961 101.348C30.9089 101.854 36.033 102.381 35.8663 96.6982C35.8438 95.9301 48.8226 91.377 46.9801 96.9876C44.6139 104.191 49.9686 105.634 53.3257 107.286C56.648 114.589 57.7201 107.143 66.4793 111.656C72.4244 114.719 70.36 109.647 75.176 119.812C77.3495 124.4 83.0375 112.967 88.3209 109.295C89.9626 108.154 89.9482 105.893 91.9223 106.181C94.83 106.605 95.8206 103.652 96.2724 101.781C97.3073 97.4983 101.701 101.995 104.035 100.849C108.326 98.7421 112.707 97.4455 113.986 93.8834C114.867 91.4294 122.033 91.6094 128.116 93.8886Z" fill="#781214" stroke="white" stroke-width="2" stroke-linejoin="round"/>
</svg>
