<svg width="39" height="41" viewBox="0 0 39 41" fill="none" xmlns="http://www.w3.org/2000/svg" filter="drop-shadow(3px 5px 2px rgb(0 0 0 / 0.4))">
<path fill-rule="evenodd" clip-rule="evenodd" d="M10.5196 3.5745C10.1806 6.58695 8.99628 8.82429 6.31505 7.99856C0.630154 6.24827 0.98426 10.5356 2.52865 11.7865C3.7861 13.5143 4.65499 15.0961 5.04671 16.5992C5.83578 19.6264 5.64977 22.1211 5.43773 24.0314C4.86281 29.2116 12.7598 34.3612 15.0711 34.2019C19.2901 33.9107 24.7932 42.0626 30.5171 38.3053C35.3461 35.136 40.6836 30.7316 35.9495 27.1962C30.8557 23.3918 35.8001 18.2267 33.6737 14.7332C32.2893 12.4589 33.4076 4.34958 30.3269 5.25585C24.2506 7.04342 29.2442 4.68334 28.7487 2.97771C27.0943 -2.71943 20.7676 7.84382 19.744 3.53826C18.9458 0.181515 14.7505 4.69353 10.5196 3.5745Z" fill="#581718" stroke="white" stroke-width="2" stroke-linejoin="round"/>
</svg>
